<?xml version="1.0" standalone="no"?>
<!DOCTYPE svg PUBLIC "-//W3C//DTD SVG 20010904//EN"
 "http://www.w3.org/TR/2001/REC-SVG-20010904/DTD/svg10.dtd">
<svg version="1.0" xmlns="http://www.w3.org/2000/svg"
 width="719.000000pt" height="719.000000pt" viewBox="0 0 719.000000 719.000000"
 preserveAspectRatio="xMidYMid meet">
<metadata>
Created by potrace 1.14, written by Peter Selinger 2001-2017
</metadata>
<g transform="translate(0.000000,719.000000) scale(0.100000,-0.100000)"
fill="#000000" stroke="none">
<path d="M1923 7174 c-71 -35 -66 83 -64 -1418 3 -1990 2 -1899 27 -1933 56
-76 167 -69 211 13 13 24 16 75 17 281 0 139 -3 253 -7 253 -5 0 -5 5 -2 11 4
6 6 74 5 152 -1 78 -3 197 -3 265 -1 75 2 122 8 122 7 0 7 3 0 8 -7 4 -10 378
-10 1085 0 1193 4 1122 -65 1159 -42 22 -75 23 -117 2z"/>
<path d="M2227 7162 c-29 -19 -64 -62 -51 -62 3 0 2 -6 -4 -12 -20 -26 6 -103
45 -132 27 -20 46 -22 283 -31 138 -5 163 -7 270 -20 222 -28 259 -33 371 -56
256 -51 488 -141 664 -257 63 -42 186 -155 225 -207 8 -11 28 -37 43 -58 15
-20 25 -37 22 -37 -4 0 2 -12 13 -27 17 -25 31 -54 37 -75 2 -5 4 -11 5 -15 1
-5 2 -11 1 -15 0 -5 4 -8 11 -8 6 0 9 -2 6 -6 -3 -3 1 -26 9 -52 8 -26 16 -61
17 -77 1 -17 5 -35 8 -40 20 -33 -9 -330 -37 -374 -3 -6 -8 -20 -10 -32 -10
-49 -137 -282 -175 -319 -5 -5 -66 -84 -85 -109 -21 -29 -353 -358 -430 -428
-291 -259 -504 -468 -631 -618 -56 -66 -163 -228 -158 -237 3 -4 1 -8 -4 -8
-9 0 -39 -69 -35 -82 2 -4 -1 -8 -6 -8 -6 0 -23 -49 -20 -63 0 -1 -5 -15 -11
-31 -12 -32 -15 -161 -4 -221 4 -22 7 -46 7 -52 0 -7 5 -13 10 -13 5 0 7 -7 4
-15 -4 -8 -2 -17 3 -20 6 -4 10 -12 10 -19 0 -8 8 -31 17 -52 9 -22 16 -42 15
-46 -1 -5 2 -8 7 -8 5 0 14 -12 20 -27 12 -34 40 -81 64 -107 9 -11 17 -23 17
-28 0 -7 21 -35 48 -63 6 -8 12 -18 12 -24 0 -6 5 -11 10 -11 6 0 10 -7 10
-16 0 -8 4 -12 10 -9 5 3 10 0 10 -9 0 -8 3 -16 8 -18 4 -1 20 -19 36 -38 110
-135 251 -284 548 -579 251 -251 1038 -1026 1061 -1046 47 -40 49 -49 25 -106
-12 -30 -25 -56 -28 -59 -3 -3 -14 -25 -25 -50 -11 -25 -22 -47 -25 -50 -3 -3
-12 -18 -20 -35 -8 -16 -17 -32 -20 -35 -3 -3 -25 -35 -49 -72 -24 -38 -47
-68 -52 -68 -5 0 -8 -3 -7 -7 7 -21 -160 -184 -259 -255 -156 -112 -387 -209
-553 -234 -215 -31 -488 39 -699 181 -119 79 -183 142 -288 276 -56 73 -156
253 -146 263 4 3 1 6 -5 6 -7 0 -11 3 -10 8 0 4 -6 23 -15 43 -17 39 -66 166
-67 174 0 8 -3 17 -19 75 -7 25 -14 50 -15 55 -1 6 -5 16 -9 23 -5 6 -6 12 -3
12 2 0 -2 23 -9 52 -8 28 -12 55 -9 60 3 4 1 8 -4 8 -5 0 -8 11 -7 25 2 14 -1
27 -5 30 -5 3 -7 14 -5 25 2 11 1 20 -3 20 -4 0 -7 16 -6 35 1 19 -1 35 -5 35
-4 0 -8 10 -8 23 -1 12 -4 42 -7 67 -9 75 -19 183 -20 218 -1 17 -4 32 -7 32
-3 0 -6 19 -6 43 -2 86 -11 272 -13 282 -1 6 -1 12 0 15 6 17 7 40 1 40 -8 0
-7 62 2 76 3 6 3 14 -1 18 -4 4 -7 189 -7 411 0 306 -3 408 -13 426 -17 33
-73 69 -105 69 -45 0 -95 -31 -115 -70 -16 -34 -18 -71 -15 -516 3 -536 6
-674 13 -674 3 0 6 -33 6 -73 2 -87 9 -151 18 -166 4 -6 2 -11 -4 -11 -6 0 -8
-5 -5 -10 8 -13 15 -52 20 -110 2 -25 4 -45 5 -45 2 0 7 -29 14 -90 2 -16 6
-46 10 -65 3 -19 8 -44 9 -55 1 -11 5 -24 8 -30 3 -5 6 -26 8 -45 1 -19 5 -37
9 -40 4 -3 8 -16 10 -30 5 -51 8 -65 14 -76 4 -6 10 -25 13 -42 3 -17 9 -42
15 -56 5 -15 7 -26 4 -26 -2 0 1 -10 8 -22 7 -13 11 -29 10 -36 -2 -6 1 -12 5
-12 5 0 9 -8 10 -17 1 -10 9 -36 19 -58 10 -22 18 -45 20 -50 3 -19 98 -210
107 -216 5 -3 8 -10 8 -15 0 -8 63 -108 116 -184 49 -70 169 -190 253 -255 55
-42 214 -145 224 -145 3 0 33 -13 68 -29 104 -49 254 -91 378 -107 61 -7 253
-7 279 0 9 3 32 8 51 11 176 29 426 136 605 259 49 33 134 106 190 161 96 97
158 165 149 165 -3 0 7 12 21 27 14 15 25 33 25 40 0 7 4 13 8 13 9 0 109 169
149 252 l25 52 197 -201 c108 -110 266 -273 351 -362 293 -307 338 -351 362
-353 13 0 30 -2 38 -3 24 -2 84 31 100 57 17 28 23 118 7 118 -5 0 -8 2 -5 6
5 5 -46 62 -212 235 -169 176 -464 480 -590 609 -80 81 -144 153 -142 161 2 8
5 19 7 24 1 6 2 12 3 15 0 3 6 21 14 40 8 19 16 38 16 43 1 4 2 8 3 10 0 1 2
9 4 17 1 8 8 35 15 60 7 25 14 53 16 63 2 10 5 26 8 35 5 15 11 48 22 107 2
11 7 37 12 57 6 20 7 39 5 42 -3 2 -1 11 3 18 8 13 11 36 16 150 2 32 5 58 8
58 8 0 10 154 13 745 2 495 1 543 -15 575 -22 44 -49 61 -102 65 -56 4 -101
-22 -121 -70 -5 -11 -9 -248 -9 -527 -1 -278 -4 -510 -8 -514 -5 -4 -3 -13 3
-21 6 -7 8 -13 3 -13 -5 0 -10 -37 -10 -83 -1 -74 -11 -262 -14 -262 -1 0 -3
-16 -5 -35 -3 -19 -7 -46 -10 -60 -3 -14 -7 -37 -10 -52 -17 -97 -22 -122 -25
-125 -2 -2 -3 -6 -4 -10 -4 -18 -20 -88 -20 -93 -1 -3 -5 -11 -9 -17 -5 -7 -6
-13 -2 -13 3 0 1 -9 -5 -20 -9 -17 -33 4 -240 208 -127 126 -230 227 -230 225
0 -7 -922 919 -970 975 -30 35 -62 71 -71 80 -115 122 -253 326 -295 437 -10
28 -10 25 -19 80 -10 62 -11 98 -1 113 4 7 5 12 1 12 -3 0 1 15 8 33 8 17 14
34 15 37 5 45 108 199 202 304 60 68 312 317 411 406 51 47 118 108 149 136
30 27 77 70 104 95 76 69 257 250 304 304 68 78 76 87 108 130 16 22 34 45 39
52 17 20 29 38 42 59 66 107 93 154 93 163 0 6 5 11 11 11 5 0 8 4 5 9 -4 5
-2 11 4 13 5 1 11 12 13 23 2 11 11 36 20 55 10 20 19 45 22 55 2 11 11 38 19
60 8 22 17 56 21 75 3 19 9 51 12 70 4 19 7 56 7 82 1 27 5 48 9 48 5 0 6 4 2
10 -3 5 -8 52 -10 105 -2 53 -8 101 -12 108 -4 7 -8 23 -9 37 -3 34 -34 143
-44 154 -5 5 -6 15 -3 22 3 8 0 14 -6 14 -6 0 -11 9 -11 20 0 11 -4 20 -10 20
-5 0 -10 7 -10 14 0 37 -120 213 -205 300 -64 66 -183 159 -260 205 -198 116
-477 219 -695 256 -19 3 -42 8 -50 10 -19 5 -65 13 -116 20 -58 7 -126 16
-154 21 -14 2 -47 6 -75 9 -27 3 -66 8 -85 10 -19 3 -129 8 -245 11 -196 5
-212 4 -238 -14z"/>
<path d="M2593 6833 c-66 -33 -62 46 -59 -1353 2 -696 5 -1272 8 -1280 19 -76
116 -113 185 -70 58 35 58 33 58 417 0 194 -4 353 -8 353 -5 0 -5 5 -1 11 10
17 12 109 2 109 -5 0 -6 5 -2 11 10 16 11 269 1 269 -5 0 -5 5 -1 11 11 19 11
109 0 109 -7 0 -8 3 -1 8 14 10 17 32 4 32 -5 0 -7 5 -3 11 10 17 12 109 2
109 -5 0 -6 5 -2 11 10 16 11 269 1 269 -5 0 -5 5 -1 11 10 17 12 109 2 109
-5 0 -6 5 -2 11 10 16 11 269 1 269 -5 0 -5 5 -1 11 11 19 11 109 0 109 -7 0
-8 3 -1 8 14 10 17 32 4 32 -5 0 -7 5 -3 11 10 17 12 109 2 109 -5 0 -6 5 -2
12 15 24 7 193 -10 230 -30 62 -106 84 -173 51z"/>
</g>
</svg>
