<svg
   width="24"
   height="24"
   viewBox="0 0 198.59979 131.59294"
   version="1.1"
   id="svg5"
   xml:space="preserve"
   xmlns="http://www.w3.org/2000/svg"
   xmlns:svg="http://www.w3.org/2000/svg"><defs
     id="defs2" /><g
     id="layer1"
     transform="translate(-15.472494,-71.319548)"><path fill="currentColor" d="m 89.241333,71.32016 c -1.921882,0.06442 -4.138348,0.925777 -4.97549,2.919677 -0.513556,1.223962 0.06615,2.735792 -0.810154,3.820583 -0.969963,1.199886 -2.812521,1.557603 -3.9624,2.619376 -3.554942,3.282685 -4.46001,9.09689 -1.364456,11.277865 0.161214,0.113584 0.529166,-0.264584 0.529166,-0.264584 l -0.298131,3.346334 c 0,0 -0.358509,0.02976 -0.420278,0.167319 -0.309441,0.689097 0.772344,2.130485 0.772344,2.130485 l 0.330269,1.505446 -5.954477,0.23256 -11.36306,0.770996 -13.758334,-1.009385 v -3.439584 l -1.5875,-0.264583 -1.322916,3.175 c -4.177507,-1.766094 -8.711671,-3.616325 -13.229167,-4.233333 1.203589,1.642004 3.214423,2.151591 5.027083,2.910416 l -2.116667,1.587501 c 1.82298,3.639871 5.961328,3.715801 9.525001,3.174991 v 3.43959 l 1.5875,0.52916 1.058333,-2.91041 14.816667,4.377 8.466667,2.76675 c 2.110581,-2.73923 5.601493,-0.94086 8.466666,-0.48075 1.49569,0.24024 3.569759,0.36565 3.41048,2.34553 -0.288661,3.58722 -2.285207,6.39551 -3.123671,9.77689 -0.536046,2.16164 0.75856,4.36245 0.25691,6.44286 -0.560917,2.32596 -2.398977,4.31695 -3.309144,6.52172 -1.208087,2.92576 -1.984904,6.02694 -3.080543,8.99583 -0.739246,2.00316 -1.757363,3.87245 -2.620698,5.82084 -1.164432,-0.42281 -4.276196,-1.42902 -3.30544,1.01917 0.152665,0.38524 0.440267,0.75433 0.659606,1.09749 l -9.353285,-1.00224 -6.257132,-0.58526 c 2.24843,-1.53855 2.379927,-4.15078 -0.531283,-5.06359 -1.458383,-0.4572 -3.220244,-0.38656 -4.739746,-0.53737 -5.095346,-0.50615 -10.417175,-0.12885 -15.366471,1.23137 -2.070365,0.56912 -5.606256,1.15808 -5.899679,3.83884 -0.191823,1.7526 1.807369,2.75193 2.724679,3.97034 -1.795198,0.37888 -3.461279,1.1803 -5.027083,2.12936 -7.393517,4.48178 -9.372336,14.00361 -6.095471,21.68314 0.870451,2.03948 2.077728,3.53142 3.474911,5.0913 0.269298,0.30066 0.780878,0.41566 1.063234,0.72577 0.307416,0.33763 0.36958,0.8531 0.663984,1.1693 1.424808,1.5303 2.779635,2.80097 4.862092,3.72873 4.839758,2.15582 10.378016,2.68869 15.610417,3.06916 7.694348,0.5596 15.310114,0.6231 23.01875,0.7747 2.396331,0.0471 4.764352,0.66014 7.14375,0.93081 5.089525,0.5789 10.23276,1.02367 15.345833,1.30413 2.667794,0.14631 5.286376,-0.54055 7.937501,-0.63183 2.256366,-0.0778 4.45638,0.43127 6.61458,1.03796 5.94334,1.67058 11.82661,4.16084 17.4625,6.67174 3.41551,1.52162 6.88737,3.12393 10.27272,0.45667 1.64121,-1.29302 1.40573,-3.12076 0.39819,-4.74901 -1.72693,-2.79162 -4.70085,-4.17803 -7.23132,-6.08568 4.06109,0 8.13832,0.16907 12.17083,-0.39291 2.28468,-0.31856 4.15184,-1.43721 6.35,-1.97194 7.70837,-1.87536 15.14819,-3.7674 22.48958,-6.86117 4.02987,-1.6981 8.0563,-3.56182 11.64167,-6.08992 1.31736,-0.92895 3.57479,-3.54568 5.27103,-3.46789 1.51315,0.0696 3.1078,2.55323 4.25424,3.4335 2.84003,2.18069 6.28782,4.11242 9.78931,4.94797 4.20609,1.00383 9.45542,1.10887 13.49375,-0.59849 2.27939,-0.96387 4.40638,-2.87628 4.88157,-5.40332 0.50747,-2.70007 -1.12475,-4.75959 -3.29433,-6.15368 -3.86768,-2.48523 -8.60981,-3.43746 -12.69974,-5.50809 -1.53775,-0.77867 -4.35504,-1.77086 -4.72784,-3.69835 -0.33549,-1.73567 1.50681,-3.94547 2.42227,-5.27738 2.78659,-4.05368 6.35926,-7.7388 8.55768,-12.17083 1.24513,-2.5109 1.60972,-5.2459 -0.74004,-7.23636 -3.6658,-3.10541 -8.94636,-1.56157 -12.65582,0.55616 -8.08011,4.61274 -13.44533,13.50856 -13.75833,22.81978 l -9.00271,0.21405 c 0,0 -4.70745,-0.80059 -7.07262,-0.67806 -2.33798,0.12113 -4.55668,1.14092 -6.8846,1.38914 -1.67149,0.17824 -3.36304,0.13944 -5.04246,0.0674 -3.11373,-0.13366 -9.30386,-0.92554 -9.30386,-0.92554 L 129.458,155.72225 c 0.66358,-0.73105 1.35096,-1.70445 2.28415,-2.10741 0.83926,-0.36248 1.87193,-0.10477 2.74373,-0.01 2.39633,0.26246 4.59158,0.73422 6.87837,1.50018 1.24857,0.41805 4.30054,2.16403 5.53138,1.24222 1.14485,-0.85778 0.40772,-3.67532 0.30983,-4.85881 -0.24924,-3.01651 -0.25347,-6.50028 -1.57666,-9.26041 -0.90699,-1.89177 -3.43693,-3.63908 -3.20622,-5.82084 l -1.05833,0.52917 6.35,-14.81667 h -0.26458 l -1.32292,1.05834 c -1.48325,1.87536 -2.97762,3.78274 -4.76938,5.37527 -0.63817,0.56727 -1.44066,1.41367 -2.37437,1.34805 -1.74837,-0.12276 -3.78725,-2.70139 -5.02708,-3.81291 l 2.64583,-0.79375 v -0.26458 c -4.75721,-0.16642 -8.60028,-3.00726 -12.96458,-4.49792 v -0.26458 c 3.49541,0.002 7.70678,0.73633 10.84712,2.37014 1.23957,0.64479 2.26007,1.64914 3.44038,2.39236 l -2.11667,-2.38125 5.29167,-0.52917 v -0.26458 l -6.87917,-2.11667 10.84792,-2.91041 v -0.26459 c -3.21813,1.23746 -6.35238,1.74361 -9.7917,1.84388 -1.31842,0.0384 -2.71992,0.21352 -4.00606,-0.15002 -2.89983,-0.81915 -5.3885,-2.89268 -8.16266,-4.05976 -2.79744,-1.17713 -5.96635,-1.6891 -8.46667,-3.45493 l 2.38125,0.26458 6.35,-1.85208 v -0.2641 c -4.48019,0.64373 -8.09148,0.93318 -12.43541,-0.52917 0.59875,-1.17184 2.12539,-3.18029 1.11839,-4.5093 -0.44106,-0.58261 -1.2663,-0.53207 -1.9177,-0.53207 -1.3589,2.6e-4 -3.19775,0.31882 -4.2762,-0.71173 -1.02499,-0.97949 -1.37795,-2.732883 -1.79969,-4.036485 -1.14962,-3.553355 -1.46394,-7.31282 -2.6498,-10.847918 3.52107,1.351227 6.69104,1.703123 10.31875,0.529167 v -0.264583 l -2.64584,-0.529167 v -0.529167 l 4.49792,-1.058333 c -3.25702,-3.76899 -8.17695,-4.236244 -12.43542,-6.281209 -2.124601,-1.019969 -3.720303,-2.790825 -5.82083,-3.852598 -1.178719,-0.595842 -2.426759,-0.727604 -3.704167,-0.978694 0,0 0.438548,-0.674467 0.529167,-1.058333 0.02026,-0.08583 0.03375,-0.183103 0,-0.264584 -0.238653,-0.576158 -0.817003,-0.958274 -1.322917,-1.322916 -0.479952,-0.34593 -0.996206,-0.813571 -1.5875,-0.79375 z m 0.0078,6.391117 c 0,0 -1.683451,-0.764821 -2.583273,-0.934799 -0.404499,-0.07641 -1.234537,-0.03235 -1.234537,-0.03235 0,0 0.162176,-0.941277 0.405197,-1.339427 0.671737,-1.10053 1.564554,-3.116408 2.780845,-2.688584 1.583231,0.556894 0.86843,2.673254 0.631768,4.99516 z m -3.68976,-2.965585 c -0.27995,0.585109 -0.356926,1.247347 -0.551415,1.866135 -0.08362,0.266063 -0.264583,0.79375 -0.264583,0.79375 -0.946944,-2.171171 0.511887,-4.961112 2.193519,-4.650998 0,0 -1.029193,1.263094 -1.377521,1.991113 z m 26.171507,36.261968 -0.26459,0.26459 0.26459,-0.26459 m 0.52916,0.26459 c 1.77853,0.68606 3.55706,1.06203 4.7625,2.64583 -1.28455,-0.49848 -4.3471,-1.23746 -4.7625,-2.64583 m 6.08542,1.85208 -0.26458,0.26458 0.26458,-0.26458 m 0.52917,0.26458 6.61458,2.64584 v 0.26458 c -1.85817,-0.34211 -5.99043,-0.80883 -6.61458,-2.91042 m 2.38125,5.29167 -0.26459,0.26458 0.26459,-0.26458 m 17.4625,11.90625 c -1.26789,2.69452 -3.37767,3.25332 -6.08463,3.5142 -0.9054,0.0873 -1.8624,0.36565 -2.76542,0.13229 -1.55311,-0.40138 -3.02525,-1.73302 -4.11454,-2.85274 l 3.70417,2.38125 -0.52917,-1.85208 1.32292,0.26458 v -0.26458 l -2.11667,-1.32292 1.5875,0.52917 -2.91041,-2.38125 h 5.02708 v -0.26459 c -1.87537,-0.3683 -4.26561,-0.89217 -5.29167,-2.64583 l 12.17084,4.7625 M 102.99967,127.941 c 1.14538,0.96334 2.79109,2.04284 2.38125,3.70416 l 1.05833,0.79375 -1.5875,-1.5875 -1.85208,-2.91041 m 2.02856,3.2631 0.17621,0.0884 -0.17621,-0.0884 m 24.95894,-0.0881 0.26458,0.26458 -0.26458,-0.26458 m 10.84791,1.85208 -0.79375,2.38125 -1.32291,-0.52917 2.11666,-1.85208 m -11.37708,0.79375 0.26458,0.26458 -0.26458,-0.26458 m -2.91042,1.5875 -2.11666,-1.05833 2.11666,1.05833 m -43.920831,11.1125 -5.291666,3.86874 -3.439584,1.95209 c 1.097757,-4.10633 4.824413,-5.80892 8.73125,-5.82083 m 27.252081,1.05833 c 0.59664,1.79944 2.54768,4.40373 1.96215,6.3172 -0.31617,1.0324 -1.27238,2.56804 -2.15529,3.20145 -1.17317,0.84164 -1.93781,-0.22013 -1.92352,-1.31656 l 0.52916,0.52916 h 0.26459 l 1.21496,-4.7625 0.10795,-3.96875 m 7.9375,2.38125 2.38125,1.05834 -0.79375,1.5875 h -0.52916 l -1.05834,-2.64584 m 7.14375,4.23334 h 0.26459 l -0.79375,-2.11667 5.02708,0.79375 c -1.05595,3.50864 -5.00115,4.07379 -7.9375,2.38125 v -0.26458 h 1.05833 v -0.26459 l -1.85208,-0.52916 1.5875,-2.64584 c 1.35202,0.53235 1.98067,1.38272 2.64583,2.64584 m -14.55208,3.43958 2.11667,-3.43958 c 1.77667,1.73302 0.0656,3.90789 -2.11667,3.43958 m 10.31875,-1.05833 v 0.52916 l -1.05833,0.26459 v -1.32292 l 1.05833,0.52917 m -5.02708,0.52916 1.05833,1.05834 h -1.32292 z"
                                                        id="path310" /></g></svg>
