<?xml version="1.0" encoding="UTF-8" standalone="no"?>
<!-- Created with Inkscape (http://www.inkscape.org/) -->

<svg
   width="24"
   height="24"
   viewBox="0 0 512 512"
   version="1.1"
   id="svg5"
   xml:space="preserve"
   xmlns="http://www.w3.org/2000/svg"
   xmlns:svg="http://www.w3.org/2000/svg"><defs
     id="defs2" /><g
     id="layer1"><path
       style="fill:#060606;stroke:none"
       d="m 340.27159,39.01426 c -2.238,0.9395 -12.586,11.5337 -12.277,13.7631 0.422,3.0348 11.858,14.1385 14.885,12.8851 2.566,-1.0626 12.656,-11.0085 12.273,-13.7624 -0.381,-2.7303 -12.3,-13.9698 -14.881,-12.8858 m -202.198,2.4622 c -26.874,7.7675 -13.446,48.5389 13,40.5617 26.18,-7.8969 13.121,-48.1115 -13,-40.5617 m 267,45.9198 c -20.165,5.2598 -10.92,36.4501 9,30.4991 19.393,-5.793 10.317,-35.5377 -9,-30.4991 m -355.000004,12.4421 -9.5386,11.999 11.5108,12.365 6.2361,-5.975 5.0402,-6.31 -6.6544,-7.153 -6.5941,-4.926 m 433.229004,8.032 c -5.514,3.305 -0.721,10.826 1.051,14.968 6.446,15.065 4.882,30.04 9.154,44.981 1.036,3.623 4.663,5.907 8.338,4.272 4.473,-1.991 3.31,-9.317 3.213,-13.253 -0.336,-13.744 -4.024,-28.402 -9.412,-41 -1.941,-4.537 -5.666,-13.971 -12.344,-9.968 m -223.229,4.392 c -9.264,1.217 -18.846,1.217 -27.985,3.399 -4.087,0.977 -7.616,4.537 -4.983,8.949 2.351,3.94 7.259,2.749 10.968,2.148 9.139,-1.481 18.739,-2.875 28,-2.919 33.532,-0.162 67.311,1.847 96,21.343 20.777,14.12 34.627,36.368 36.035,61.656 0.276,4.952 -0.173,17.461 7.86,15.522 6.254,-1.509 4.274,-13.772 4.066,-18.522 -0.855,-19.491 -10.214,-39.669 -23.132,-54 -29.496,-32.723 -84.62,-43.118 -126.829,-37.576 m -63,12.041 c -49.784,8.618 -100.965004,45.983 -134.960604,81.535 -10.8803,11.379 -20.792,24.328 -28.6119,38 -2.2834,3.992 -7.736,14.047 0.6126,15.214 6.0148,0.84 8.8707,-7.176 11.3851,-11.214 7.8919,-12.676 17.0226,-24.431 27.5748,-35 24.8682,-24.908 52.501004,-45.014 84.000004,-60.753 10.223,-5.108 21.018,-9.873 32,-13.103 4.534,-1.333 13.055,-1.926 16.254,-5.657 5.166,-6.025 -3.239,-9.89 -8.254,-9.022 m 84.001,11.189 c -15.219,4.721 -8.06,28.345 6.999,23.692 15.371,-4.748 8.292,-28.437 -6.999,-23.692 m -22.001,35.785 c -36.022,3.847 -69.548,15.069 -99,36.939 -8.684,6.448 -18.156,13.907 -24.682,22.622 -2.493,3.329 -3.488,9.522 1.741,10.917 4.897,1.307 8.424,-3.824 11.226,-6.903 6.589,-7.239 14.766,-13.434 22.715,-19.104 18.6,-13.267 40.674,-23.829 63,-28.899 8.202,-1.863 16.587,-3.441 25,-3.918 3.765,-0.213 8.468,1.562 11.771,-0.85 10.004,-7.308 -6.503,-11.367 -11.771,-10.804 m 38.229,3.589 c -5.311,3.258 -1.519,8.859 2.786,10.493 11.13,4.224 21.999,7.081 30.895,15.653 19.759,19.039 11.908,47.005 -3.526,65.826 -16.588,20.229 -43.231,33.003 -69.384,32.046 -10.415,-0.381 -29.057,-5.443 -28.489,-19.046 0.46,-11.036 18.795,-26.498 29.17,-17.297 4.301,3.813 -0.433,9.565 2.499,13.863 2.077,3.046 6.837,2.741 9.092,0.116 6.645,-7.732 1.637,-20.941 -6.273,-25.265 -8.888,-4.858 -21.532,-2.758 -29.999,1.896 -25.906,14.239 -18.375,46.221 7,54.991 27.051,9.349 59.49,-2.024 81,-18.973 22.77,-17.941 40.692,-48.976 29.771,-78.331 -6.204,-16.675 -20.557,-27.475 -36.771,-33.575 -4.701,-1.769 -12.939,-5.361 -17.771,-2.397 m 198.919,10.004 c -4.549,2.598 -2.998,9.644 -3.187,13.968 -0.532,12.138 -3.478,24.463 -7.155,36 -9.601,30.116 -27.35,56.474 -48.091,80 -6.633,7.524 -16.404,13.033 -22.267,21.039 -3.329,4.547 -0.558,10.855 5.553,9.403 9.706,-2.306 19.417,-15.521 26.034,-22.446 24.553,-25.691 44.417,-59.384 53.07,-93.996 2.88,-11.521 5.249,-24.084 4.88,-36 -0.144,-4.617 -2.973,-11.316 -8.837,-7.968 m -245.148,24.396 c -15.026,2.152 -29.966,6.905 -43,14.776 -9.745,5.884 -19.136,12.958 -26.384,21.796 -24.483,29.854 -20.764,73.018 14.384,93.127 29.482,16.868 67.09,15.449 99,7.243 9.592,-2.466 22.865,-5.071 30.771,-11.339 4.486,-3.557 2.199,-10.774 -3.775,-10.504 -12.155,0.549 -26.662,9.651 -38.996,12.262 -24.19,5.122 -52.196,5.73 -75,-5.109 -24.199,-11.502 -37.646,-37.386 -26.334,-62.68 12.833,-28.696 48.58,-47.988 79.334,-48 11.852,-0.005 26.122,1.89 34.66,11.184 13.744,14.963 -4.179,29.725 -10.466,41.986 -2.109,4.112 1.013,9.249 5.81,8.453 4.912,-0.815 9.493,-6.833 12.207,-10.623 8.529,-11.909 12.852,-30.834 4.859,-43.996 -10.791,-17.771 -38.283,-21.266 -57.07,-18.576 m 181.001,23.314 c -15.114,5.78 -5.819,28.917 8.995,23.109 14.78,-5.795 5.72,-28.736 -8.995,-23.109 m -32.868,8.02 c -5.902,2.293 -9.564,17.774 -12.391,23.238 -6.117,11.821 -15.032,22.852 -24.742,31.91 -4.927,4.597 -12.451,8.706 -16.127,14.379 -2.532,3.908 0.156,9.615 5.131,9.144 5.89,-0.558 11.893,-7.637 15.996,-11.358 13.986,-12.685 26.415,-27.656 34.138,-45.075 1.71,-3.855 11.459,-27.47 -2.005,-22.238 m -278.028,13 c -8.29,3.121 -12.111,22.599 -13.975,30.238 -8.740904,35.809 2.944,73.423 30.87,97.711 8.025,6.979 17.368,12.996 27,17.507 3.244,1.52 8.128,3.909 11.566,1.599 3.168,-2.128 2.592,-6.808 0.116,-9.18 -6.524,-6.249 -17.311,-9.185 -24.682,-14.768 -26.133,-19.795 -39.733,-50.375 -34.704,-82.869 1.713,-11.068 6.572,-20.634 10.379,-31 1.701,-4.631 -0.139,-11.66 -6.57,-9.238 m -97.000804,16.281 c -6.9442,3.63 -9.5754,17.112 -11.7601,23.957 -7.99879,25.06 -9.96621,53.241 -4.54009,79 1.39489,6.622 9.08239,36.059 19.96759,29.806 2.8707,-1.65 3.2279,-4.964 2.1273,-7.806 -3.6113,-9.326 -8.8305,-16.89 -10.895,-27 -6.7114,-32.864 4.0661,-59.19 12.3549,-90 1.2544,-4.663 -1.556,-10.935 -7.2546,-7.957 m 36.8966,45.614 c -15.3289,4.642 -8.3884,28.131 6.9984,23.77 15.4009,-4.365 8.1569,-28.36 -6.9984,-23.77 m 136.999204,35.953 c -23.378,1.418 -21.319,37.734 2,35.999 23.054,-1.715 21.147,-37.402 -2,-35.999 m 191,3.047 c -14.08,3.445 -28.626,15.894 -42,22.034 -33.862,15.547 -75.28,29.06 -113,24.594 -9.406,-1.113 -19.628,-3.893 -29,-4.175 -3.893,-0.118 -8.723,2.093 -7.199,6.836 1.54,4.792 8.043,5.408 12.199,6.253 12.635,2.568 27.163,4.911 40,3.225 38.539,-5.06 73.447,-11.48 109,-28.682 11.186,-5.413 25.426,-11.243 34.772,-19.527 4.981,-4.416 2.385,-12.308 -4.772,-10.558 m 91.525,0.429 c -2.372,1.284 -12.386,11.213 -12.059,13.805 0.37,2.932 12.474,14.509 15.249,13.023 2.329,-1.248 12.7,-11.442 12.364,-13.852 -0.413,-2.959 -12.681,-14.531 -15.554,-12.976 m -49.435,59.765 c -4.94,1.476 -6.498,8.52 -9.48,12.106 -3.435,4.129 -8.485,5.398 -12.381,8.832 -1.765,1.556 -3.117,3.677 -2.378,6.11 1.493,4.914 9.366,6.582 12.936,9.711 4.128,3.617 6.961,16.294 14.174,13.767 5.375,-1.882 6.505,-9.417 10.252,-13.164 3.305,-3.305 8.276,-4.256 11.469,-7.603 1.612,-1.69 2.57,-4.105 1.695,-6.4 -1.874,-4.919 -9.466,-6.138 -12.998,-9.6 -3.619,-3.548 -6.599,-15.758 -13.289,-13.759 m -321.92,26.039 c -2.151,0.616 -14.946904,14.061 -14.704004,16.004 0.4432,3.545 5.910004,5.22 8.144004,7.485 2.21,2.24 4.25,8.263 8.196,7.7 3.233,-0.462 4.804,-5.581 6.804,-7.689 8.153,-8.591 9.776,-6.667 0.575,-15.603 -2.297,-2.231 -4.99,-9.048 -9.015,-7.897 m 205.831,14.767 c -13.686,4.143 -7.808,25.85 5.998,21.686 13.664,-4.12 7.895,-25.893 -5.998,-21.686 z"
       id="path962" /></g></svg>
