<svg
   width="24"
   height="24"
   viewBox="0 0 456 979"
   version="1.1"
   xml:space="preserve"
   style="clip-rule:evenodd;fill-rule:evenodd;stroke-linejoin:round;stroke-miterlimit:2"
   id="svg7"
   xmlns="http://www.w3.org/2000/svg"
   xmlns:svg="http://www.w3.org/2000/svg"><defs
     id="defs5" /><path
     id="path1117"
     fill="currentColor"
     d="m 120.9029,978.22246 c -0.29755,-0.3895 -0.89065,-1.5875 -1.31796,-2.6623 -0.42733,-1.0747 -1.79346,-2.9405 -3.03584,-4.1462 -2.05679,-1.996 -2.28227,-2.5056 -2.52026,-5.6951 -0.57099,-7.65234 -0.54944,-7.75572 2.89707,-13.90171 1.78533,-3.18363 3.24605,-6.0744 3.24605,-6.4238 0,-0.3494 0.59863,-1.42424 1.3303,-2.38857 1.44257,-1.90133 6.03558,-9.3493 6.03558,-9.7873 0,-0.1479 1.01989,-1.69323 2.26642,-3.43393 1.24653,-1.74078 2.26643,-3.45236 2.26643,-3.80336 0,-0.35119 0.8924,-2.35002 1.98312,-4.44189 1.09072,-2.09188 1.98312,-4.38678 1.98312,-5.09965 0,-0.71297 0.40399,-2.81598 0.89773,-4.67332 1.11129,-4.18016 1.12716,-7.32942 0.0453,-8.98051 -0.4734,-0.72253 -0.64004,-1.61057 -0.38999,-2.07859 0.24007,-0.44937 0.57709,-3.1803 0.74883,-6.06869 0.17173,-2.88839 0.68179,-6.33052 1.13332,-7.64918 1.90986,-5.57699 2.2352,-6.95646 2.18857,-9.27999 -0.0283,-1.41306 -0.70877,-3.83015 -1.60894,-5.71553 -2.32319,-4.86607 -2.27186,-9.29942 0.11338,-9.79662 5.05799,-1.05417 7.20661,-4.43829 7.10468,-11.18991 -0.28262,-18.72679 -0.56541,-29.77572 -0.83727,-32.70841 -1.42377,-15.36064 -1.25696,-28.29183 0.54524,-42.26033 0.13729,-1.06425 0.38161,-3.20981 0.54298,-4.76798 0.16131,-1.55817 0.53431,-5.0003 0.82888,-7.64919 0.77512,-6.96953 1.24745,-13.5046 1.18767,-16.43158 -0.0289,-1.40235 0.58689,-6.09311 1.36779,-10.42391 l 1.41985,-7.87418 -4.38603,-5.35856 c -2.41227,-2.9472 -5.99527,-7.30798 -7.96219,-9.69061 -1.96691,-2.38263 -5.90024,-7.5192 -8.74074,-11.41462 -8.00654,-10.9801 -13.12712,-17.25984 -20.10095,-24.65128 -24.847457,-26.33545 -28.732237,-42.08897 -17.674117,-71.67177 4.37562,-11.70568 5.16852,-13.93194 5.24686,-14.73176 0.0698,-0.71245 -1.52028,-0.91569 -9.83234,-1.25673 -5.45359,-0.22369 -10.62907,-0.47867 -11.50107,-0.56661 -1.48601,-0.14975 17.04332,-18.29559 25.666217,-25.13493 3.86219,-3.06335 6.74115,-6.09737 7.43132,-7.83146 0.38447,-0.96601 1.19226,-2.47222 1.79511,-3.34717 1.38831,-2.01485 2.2174,-1.63409 -8.80683,-4.04466 -5.266087,-1.15146 -13.814097,-3.5813 -19.189987,-5.45483 -5.33171,-1.85819 -15.209489,-5.03688 -21.950639,-7.06376 -15.20705,-4.57239 -15.19324,-4.5668 -15.63456,-6.32519 -0.49482,-1.97149 -1.33177,-1.7939 13.06895,-2.77317 27.745729,-1.88676 29.716659,-2.3676 20.478389,-4.99605 -5.22828,-1.48754 -23.259889,-7.12536 -23.445609,-7.33059 -0.0415,-0.0459 -0.26079,-0.94754 -0.48731,-2.00374 l -0.41184,-1.92036 9.2697,0.35367 c 5.09833,0.19453 14.964929,0.62459 21.925759,0.95571 l 12.65607,0.60202 3.208897,-2.71827 c 27.59173,-23.37308 38.6916,-38.83616 39.77688,-55.41266 0.26529,-4.05123 0.73846,-9.15069 1.05157,-11.33212 1.73177,-12.06538 1.4313,-29.18021 -0.51233,-29.18021 -1.65233,0 -10.05975,-2.76885 -14.15966,-4.66328 -5.07236,-2.34376 -12.08462,-3.40032 -17.28148,-2.60386 -13.363077,2.04799 -29.363957,-2.39794 -38.196557,-10.61313 -2.364449,-2.19912 -5.828799,-4.84556 -7.698599,-5.88096 -9.61176,-5.32255 -17.43651,-14.74081 -19.25205,-23.17271 -0.33394,-1.55097 -1.13139,-2.35331 -4.45916,-4.48649 -11.19712,-7.17764 -19.56086,-19.00163 -21.48066,-30.36763 l -0.72826,-4.3116 -5.45663,-2.73668 C 1.7545339,319.83835 -2.1722761,314.11182 1.1167439,307.62152 c 0.58592,-1.15621 1.2559,-3.24957 1.48881,-4.65192 1.24583,-7.50057 8.0788201,-12.20874 22.7306501,-15.66221 l 6.87006,-1.61928 0.31397,-3.68294 c 0.33741,-3.95808 1.92299,-8.69413 4.50359,-13.45212 1.53391,-2.82817 3.07146,-10.96963 2.30566,-12.20872 -0.15885,-0.25702 0.65301,-2.25962 1.80413,-4.45022 2.39149,-4.55101 2.42837,-4.08684 -1.08713,-13.68238 -2.81161,-7.67425 -3.02326,-7.23584 3.29319,-6.82093 l 5.32562,0.34983 0.61081,-3.05639 c 0.33593,-1.68101 1.029,-5.60611 1.54014,-8.72244 1.92604,-11.74253 2.11882,-11.75634 12.75934,-0.91367 10.038919,10.22965 11.911759,10.46661 25.829839,3.26804 2.38761,-1.23488 2.28882,-1.27799 3.07355,1.34124 0.68413,2.28341 0.74598,2.32495 4.58625,3.08016 1.44509,0.28418 10.391417,-1.82059 13.593517,-3.19809 5.1754,-2.22641 6.14964,1.78095 1.28268,5.27612 l -2.55966,1.83822 4.57024,2.37968 c 5.75648,2.99735 6.51791,3.70194 7.84497,7.25941 1.12899,3.02654 3.96199,5.83852 4.46094,4.42788 0.19684,-0.55654 0.43215,-0.50445 0.9557,0.21156 1.81455,2.48157 10.5948,-4.537 13.99749,-11.18901 l 1.83263,-3.58264 0.49618,2.40808 c 0.60865,2.95387 1.01485,2.99445 2.8353,0.2833 2.96448,-4.41485 3.05633,-4.09319 -1.85122,-6.48123 -14.89007,-7.24564 -15.86378,-26.0103 -2.5818,-49.75443 2.88346,-5.1547 3.02625,-5.60959 3.37085,-10.73679 l 0.35986,-5.35404 -2.00913,1.94732 c -2.53091,2.45306 -4.5473,6.57047 -5.53903,11.31048 -1.13196,5.41053 -7.14909,14.39222 -8.64177,12.89953 -0.36665,-0.36665 1.33102,-6.44825 2.88273,-10.32687 1.67987,-4.19914 3.64662,-11.8574 3.10257,-12.08107 -0.50683,-0.20835 -5.1023,1.8119 -6.3567,2.79452 -0.75614,0.59234 -1.1105,2.29585 -1.57324,7.5638 -1.18557,13.49528 -1.42813,13.94313 -3.39235,6.26315 -2.42295,-9.47362 -1.13966,-14.45831 5.5156,-21.42421 2.10408,-2.20232 3.31566,-3.80505 2.6924,-3.56163 -5.03272,1.96556 -13.40987,0.53918 -17.06192,-2.90514 -2.52029,-2.37695 -2.47763,-2.45293 1.3774,-2.45293 5.51001,0 13.47945,-2.97537 12.78898,-4.77472 -0.17219,-0.44864 0.23906,-0.88541 1.02029,-1.0837 2.04817,-0.51989 3.06489,-2.54348 1.77082,-3.52452 -0.97173,-0.7367 -0.95859,-0.78093 0.23803,-0.79795 1.8256,-0.026 3.58078,-2.99181 7.75667,-13.10704 13.12435,-31.790801 22.6903,-40.437519 39.42632,-35.637673 1.08386,0.31083 2.11951,0.565172 2.30139,0.565172 0.18194,0 0.64768,-1.719862 1.03502,-3.821898 1.80588,-9.80102 9.4966,-13.7315 21.86819,-11.1761 10.3734,2.14269 13.3197,5.21728 13.3197,13.899746 v 4.604222 l 2.7031,-0.3718 c 1.5854,-0.21804 3.3984,-0.10751 4.3842,0.26729 0.9245,0.3515 3.0415,0.7176 4.7043,0.81358 1.6629,0.096 3.3106,0.46172 3.6617,0.81277 0.351,0.35103 1.2885,0.64742 2.0831,0.65862 1.7445,0.0246 3.9312,1.76834 5.8966,4.702141 0.8005,1.19504 3.0741,3.39813 5.0524,4.89576 14.4686,10.95298 22.5105,27.44339 22.5083,46.15484 0,9.71461 -0.9226,14.55389 -5.6717,29.78441 -2.2644,7.26178 -3.7884,17.19972 -5.0833,33.14647 -0.3037,3.73959 -0.83,8.29032 -1.1697,10.11272 -0.7241,3.88418 -0.7983,3.76277 2.692,4.40811 3.8852,0.71836 4.286,1.48958 3.9843,7.66637 l -0.2535,5.18903 2.52,0.37788 c 1.3859,0.20785 2.5604,0.29503 2.6097,0.19374 0.049,-0.10128 0.5097,-0.94907 1.0229,-1.88397 0.5134,-0.9349 1.8601,-4.63201 2.9929,-8.21579 1.1328,-3.58378 2.5338,-7.40214 3.1136,-8.48525 l 1.0541,-1.96928 0.9109,2.18012 c 0.5009,1.19908 0.9109,2.3317 0.9109,2.51695 0,1.85959 1.9298,5.09284 2.541,4.2571 0.809,-1.10631 0.9639,-0.88784 2.27,3.20018 2.0441,6.39772 4.7636,10.5314 7.3049,11.10361 l 2.2732,0.51181 -0.1521,3.54129 c -0.1715,3.99476 0.043,4.1742 2.3725,1.98312 1.4161,-1.33206 1.6124,-1.39372 1.3524,-0.42495 -1.7157,6.39153 -0.6263,9.98062 3.8737,12.76172 2.0159,1.24594 7.0613,7.61596 7.0613,8.91525 0,2.12659 5.3901,8.07114 10.2113,11.26164 1.663,1.10051 2.2557,1.84035 2.0633,2.57575 -1.2305,4.70591 8.4171,-5.83694 11.0455,-12.07029 0.4547,-1.07859 -1.9505,-6.59129 -3.3094,-7.585 -1.2072,-0.88269 -0.8209,-2.76274 2.0157,-9.8101 1.2136,-3.01531 3.5252,-9.56193 5.1367,-14.54806 3.454,-10.6867 3.1405,-10.24908 6.311,-8.81075 3.9899,1.81013 4.4599,1.62474 9.6534,-3.80706 14.4058,-15.06662 16.8825,-16.2299 18.3743,-8.62992 0.214,1.09072 0.5794,2.23809 0.8118,2.54973 0.2324,0.31163 0.9926,2.47247 1.6894,4.80186 3.1811,10.63573 4.4557,11.29268 18.7215,9.65005 7.561,-0.87061 7.7228,-0.52647 5.0584,10.7596 -0.5514,2.3359 -0.9254,4.3244 -0.8308,4.41888 0.5285,0.52854 7.6043,-5.30262 8.7787,-7.23451 1.6882,-2.77711 4.8191,-5.04403 7.5867,-5.49316 2.9382,-0.4768 3.2935,0.90754 1.0158,3.95672 -0.9742,1.30428 -2.7153,3.90125 -3.8689,5.77104 -1.1535,1.86981 -2.5934,3.75817 -3.1998,4.19636 -8.1353,5.87963 -9.6635,9.98928 -3.8542,10.36524 2.3931,0.15487 2.6454,0.30927 2.8077,1.71793 0.1151,0.99969 0.7691,1.89682 1.8468,2.53345 2.2977,1.35729 1.9584,1.77252 -2.8974,3.54497 -10.7405,3.92051 -15.1446,8.39617 -11.8992,12.09246 1.9503,2.22137 2.8559,4.32747 2.8559,6.64269 0,1.79426 0.2226,1.69002 -8.2158,3.84674 -3.1087,0.79452 -3.9479,1.22991 -3.8814,2.01357 0.087,1.03052 -4.1296,4.51791 -4.893,4.04617 -0.2292,-0.14171 -0.5496,1.83896 -0.7119,4.40151 -0.2751,4.34082 -2.1501,10.04193 -3.3026,10.04193 -0.6093,0 -8.6714,-5.37354 -12.5526,-8.3666 -5.4716,-4.21956 -6.2808,-4.6429 -7.5546,-3.95212 -2.0254,1.09848 -5.5945,4.54966 -10.2498,9.91149 -11.9048,13.71163 -20.4358,14.35687 -40.0836,3.03171 -3.9099,-2.25373 -7.6503,-4.02412 -8.5019,-4.02412 -1.8716,0 -5.3374,-1.71741 -6.8574,-3.39807 -0.6229,-0.68872 -2.1527,-1.83935 -3.3997,-2.55695 -2.0354,-1.1714 -4.1186,-1.75641 -12.7493,-3.58022 -2.1656,-0.45763 -2.3576,-0.60084 -1.2749,-0.95062 1.9835,-0.64072 1.5965,-0.98058 -3.7057,-3.25434 -6.043,-2.5914 -5.7204,-2.59417 -5.6839,0.0487 0.094,6.83943 -2.3674,15.00559 -7.4582,24.74034 -8.9762,17.16415 -11.797,26.7105 -7.6589,25.91945 3.0569,-0.58436 5.555,2.88088 7.4151,10.28623 0.8594,3.42126 1.0198,3.66321 2.0595,3.10677 3.7845,-2.02543 8.7856,-0.012 10.6243,4.27733 0.5791,1.35106 1.552,2.80599 2.1618,3.23317 0.6596,0.46203 1.2309,1.69388 1.41,3.04074 0.1656,1.24524 0.8275,3.66642 1.4708,5.3804 1.3811,3.67942 1.5486,8.84924 0.3388,10.44886 -1.1533,1.52481 -1.0392,5.2029 0.2805,9.0386 1.261,3.6651 1.5611,6.93654 0.9449,10.29916 l -0.4227,2.30622 3.2906,2.22663 c 4.0512,2.7413 8.3507,3.53809 19.4389,3.60238 19.6692,0.11406 39.8038,6.19357 44.1248,13.32323 l 1.8526,3.05686 1.9238,-0.80378 c 2.9805,-1.24535 3.9433,-1.00427 5.5231,1.38309 1.158,1.7498 1.9011,2.25945 3.7181,2.54999 1.2489,0.19972 2.7162,0.80921 3.2605,1.35442 0.6679,0.66893 2.6738,1.20484 6.1681,1.64796 9.5085,1.20577 16.979,4.99827 23.5503,11.95544 14.0873,14.9147 13.807,14.05683 6.836,20.91709 -7.9252,7.79927 -10.5251,8.17241 -13.1248,1.88369 -4.8542,-11.74239 -20.4582,-28.44169 -26.3686,-28.21949 -0.9619,0.0361 -2.5975,-0.35755 -3.6345,-0.8749 -2.3581,-1.17636 -2.613,-0.92109 -1.7977,1.80032 0.4181,1.39512 1.1627,2.40935 2.0739,2.82453 1.0577,0.48195 1.4218,1.08271 1.4218,2.34669 0,1.19712 0.428,1.97934 1.4491,2.64843 3.7478,2.45562 4.8869,12.67515 1.4128,12.67515 -1.6638,0 -0.5781,5.50307 1.9651,9.96054 3.5159,6.16238 5.7679,12.24842 7.6959,20.79909 0.8986,3.98501 2.4007,9.04742 3.3379,11.2498 3.2408,7.61599 0.4892,11.83023 -9.4075,14.40801 -7.5127,1.95678 -13.754,-5.87617 -12.2153,-15.33022 0.7361,-4.5227 0.8569,-34.76715 0.1426,-35.6843 -0.2513,-0.32272 -0.6135,-1.24423 -0.8049,-2.0478 -0.1913,-0.80356 -0.9588,-1.73941 -1.7055,-2.07964 -3.4406,-1.56764 -4.6202,-8.38589 -2.0222,-11.68874 0.6628,-0.84257 1.0863,-2.27182 1.0863,-3.66617 0,-1.2569 0.283,-2.46023 0.629,-2.67405 1.5029,-0.92882 -3.0624,-10.05754 -5.092,-10.18197 -1.659,-0.10172 -3.4553,-1.02384 -3.7397,-1.91984 -0.3368,-1.06151 -6.2323,-3.49219 -11.0619,-4.5608 -8.6291,-1.90928 -15.8305,-4.17136 -19.1472,-6.01435 -11.6407,-6.46857 -12.3643,-6.72921 -18.3236,-6.60029 -5.2616,0.11382 -5.5325,0.0585 -7.543,-1.5392 -1.147,-0.91149 -3.408,-2.08987 -5.0247,-2.61861 -1.6166,-0.52876 -3.9201,-1.45414 -5.1189,-2.05643 -2.8091,-1.41125 -3.1092,-1.03299 -1.0577,1.33256 0.9068,1.04553 3.4776,4.3773 5.713,7.40392 2.2354,3.02663 4.4013,5.70383 4.8131,5.94936 0.4119,0.24554 2.3764,2.35871 4.3655,4.69597 1.9892,2.33725 6.3065,7.06655 9.5941,10.50956 6.6909,7.00708 11.1582,13.07519 14.5793,19.80387 4.3876,8.62946 9.7841,20.27671 9.7841,21.11682 0,1.22704 2.5589,8.12666 4.2563,11.47607 1.8464,3.64377 5.7593,13.98761 6.9057,18.25498 1.0397,3.87077 0.5105,5.13155 -2.9217,6.96061 l -2.0989,1.11856 -1.3191,-1.64425 c -0.7255,-0.90435 -1.8606,-3.45407 -2.5224,-5.66606 -2.9845,-9.97514 -3.7639,-12.19765 -5.5829,-15.92055 -1.6204,-3.31619 -7.1599,-9.86924 -7.7956,-9.22189 -0.084,0.0859 0.1937,1.81352 0.6179,3.83914 0.4243,2.02561 0.9247,5.10633 1.1122,6.84603 0.4808,4.46298 13.2077,31.31011 14.9711,31.58111 1.9215,0.29529 3.155,4.58143 6.5733,22.83998 2.1174,11.31054 2.3273,10.48817 -7.7622,30.41355 -10.9866,21.69716 -11.8799,23.28871 -16.2024,28.86479 -4.3467,5.60731 -4.8158,5.74992 -3.7275,1.13321 0.4591,-1.94771 1.0483,-4.56118 1.3093,-5.80771 0.2609,-1.24653 1.1499,-5.4333 1.9755,-9.3039 3.0871,-14.47436 4.0656,-29.51616 2.5037,-38.48525 l -0.642,-3.68674 -1.8122,5.05679 c -3.3326,9.29891 -5.6875,12.11535 -10.5179,12.57951 l -2.9129,0.27984 -3.3763,-3.33464 -3.3763,-3.33465 -2.0057,2.40808 c -2.4684,2.96358 -4.128,3.11095 -7.6342,0.67777 -5.9177,-4.10671 -6.7743,-4.65631 -6.9253,-4.44361 -0.087,0.12347 -0.8762,3.15673 -1.7525,6.74052 -3.9582,16.18896 -12.0546,35.98628 -14.5158,35.49402 -1.4957,-0.29911 -1.601,-0.10969 -7.031,12.64886 -3.1015,7.2874 -7.4221,16.25757 -9.8784,20.50905 -8.3428,14.43995 -17.2054,28.63412 -21.7238,34.79239 -7.6435,10.41779 -7.7477,10.92326 -6.1205,29.70812 1.4296,16.50462 1.5127,29.10701 0.2564,38.84935 -0.5055,3.92019 -0.7785,7.26814 -0.6066,7.44 1.0167,1.01672 1.9058,-0.72214 2.5604,-5.00801 1.1398,-7.46152 2.3771,-8.16054 3.1728,-1.7924 0.2193,1.75569 0.7107,3.50407 1.0918,3.88527 0.3812,0.38116 1.0258,2.18796 1.4324,4.01503 0.4066,1.82714 1.2268,4.01039 1.8226,4.85174 2.8338,4.00143 4.1011,7.9615 4.2249,13.20204 0.147,6.22281 1.8819,12.904 3.8967,15.00707 2.2861,2.38615 2.0923,8.27341 -0.3646,11.07154 l -1.7888,2.03729 -2.9589,-2.92221 c -4.2401,-4.18745 -4.9954,-3.86862 -6.7587,2.85331 -3.2721,12.47361 -2.6761,21.49885 1.8609,28.17993 2.8646,4.21822 2.8512,3.85893 0.2438,6.5239 -1.1686,1.19447 -3.5271,4.19011 -5.2411,6.65706 -6.7048,9.65033 -16.83199,20.80164 -18.35894,20.21566 -0.4981,-0.19112 -0.90566,-0.0855 -0.90566,0.23475 0,0.32024 -0.22822,0.44121 -0.50722,0.26879 -0.279,-0.17241 -0.64118,0.0357 -0.80487,0.46207 -0.16369,0.42654 -1.47012,0.95139 -2.90312,1.16624 -3.00052,0.45001 -4.50367,2.15141 -4.45959,5.04795 0.0278,1.84267 0.0874,2.12427 1.15214,5.46906 0.34728,1.09071 0.58644,2.87552 0.53153,3.96624 -0.0549,1.09072 0.10846,2.61308 0.36286,3.38309 0.25447,0.76996 0.59913,2.93723 0.766,4.81616 0.44025,4.95865 1.73573,9.73734 3.69109,13.61509 3.30978,6.56383 3.52747,5.52679 -3.08505,14.69761 -0.74231,1.02951 -0.8889,0.89514 -2.31675,-2.12305 -4.16585,-8.80589 -8.72556,-9.38995 -9.69989,-1.24241 -0.22364,1.86981 -0.64582,3.84789 -0.93819,4.39568 -0.51312,0.96139 -1.2288,7.67156 -1.25344,11.75256 -0.0351,5.81911 1.64995,13.23191 3.56009,15.66019 1.01174,1.28622 1.07616,1.64827 0.42994,2.41698 -0.4181,0.49721 -1.88215,2.26399 -3.25351,3.92597 -1.37135,1.66207 -4.53913,4.74526 -7.0394,6.85166 -2.50031,2.10642 -5.82034,5.01742 -7.37789,6.46882 -1.55748,1.4514 -3.03707,2.639 -3.28802,2.639 -0.25088,0 -2.88509,1.4023 -5.85378,3.1163 -2.96867,1.714 -5.66526,3.1163 -5.99242,3.1163 -0.32716,0 -2.36196,0.6375 -4.52175,1.4166 -4.44927,1.6049 -12.88068,2.0347 -13.89395,0.7083 z M 335.38147,433.57873 c 0.984,-0.98402 -3.0699,-4.01935 -8.9981,-6.73731 l -6.5493,-3.00265 -11.0155,-1.22715 c -16.3519,-1.82163 -16.1651,-1.90761 -6.3813,2.93609 4.6187,2.28658 9.8,4.45889 11.5139,4.82734 1.7141,0.36845 6.4311,1.4083 10.4823,2.31077 6.5029,1.44861 10.099,1.74191 10.948,0.89291 z M 88.334653,392.63503 c -3.94933,-4.03574 -6.39276,-7.88216 -7.32988,-11.53857 -0.52093,-2.03256 -1.03794,-2.87457 -1.88163,-3.06442 -7.983,-1.79644 -7.66616,-1.9433 -6.38078,2.95748 1.70047,6.48342 5.52542,10.58097 12.58332,13.48013 5.98509,2.45848 6.75235,1.99067 3.00897,-1.83462 z m 43.540047,-3.00937 c 7.01867,-2.78812 6.49789,-1.93989 5.02517,-8.18528 -1.59278,-6.75443 -0.7316,-6.31889 -8.60113,-4.34987 -3.69066,0.92341 -8.30384,1.85967 -10.25155,2.08056 -4.14549,0.47015 -4.00058,0.11994 -1.77632,4.29307 4.49655,8.4364 7.1949,9.5019 15.60383,6.16152 z M 63.523034,383.029 c -0.60205,-1.58447 -1.39405,-4.50582 -1.76,-6.49189 l -0.66536,-3.61104 -4.03427,-1.75657 c -2.21885,-0.96611 -4.11641,-1.54399 -4.21681,-1.28417 -0.65336,1.6909 10.49666,17.29893 11.58238,16.21323 0.10378,-0.10379 -0.30389,-1.48509 -0.90594,-3.06956 z m 15.853279,-17.02821 c 0,-0.85905 0.26847,-2.45262 0.59657,-3.54129 0.32812,-1.08866 0.60859,-2.86161 0.62327,-3.93989 0.0147,-1.07829 0.75023,-4.00512 1.63454,-6.50408 1.83818,-5.19449 1.82029,-5.61173 -0.12969,-3.02461 -6.13015,8.13316 -9.59914,17.15047 -6.83258,17.76063 0.85699,0.18902 1.81314,0.42872 2.12477,0.53268 1.48262,0.49456 1.98312,0.17065 1.98312,-1.28344 z m -17.572439,-10.503 c 1.01043,-6.79723 3.18182,-13.65377 6.56909,-20.74298 3.729929,-7.80641 3.780409,-7.71256 -1.61621,-3.00584 -8.79942,7.67448 -13.06152,14.65542 -15.3954,25.21626 -0.33575,1.51926 -0.15685,1.67578 4.34174,3.79864 l 4.69192,2.2141 0.37623,-1.53223 c 0.20692,-0.84272 0.67162,-3.5193 1.03263,-5.94795 z m 65.632656,-0.82538 c -3.89117,-4.07057 -4.1529,-6.58921 -1.05174,-10.12121 l 1.68203,-1.91573 -2.38926,-2.56623 -2.38927,-2.56621 -2.00354,2.21746 c -3.04116,3.36586 -5.02577,6.43744 -6.51779,10.08759 l -1.35141,3.30616 1.25343,0.9627 c 1.79668,1.37993 6.89411,2.59867 11.14235,2.66401 l 3.65631,0.0562 -2.03111,-2.12477 z m -81.491226,-5.80354 c 1.2568,-4.22008 4.27982,-10.33566 6.63616,-13.42499 2.27526,-2.98302 0.67587,-2.18723 -3.34382,1.66374 -5.55781,5.32453 -7.37916,10.08244 -5.46656,14.28015 0.88092,1.93342 0.83107,1.99118 2.17422,-2.5189 z m -10.75873,-5.27872 c 0.0518,-11.62502 25.28249,-29.68679 51.603729,-36.94137 2.0821,-0.57386 3.72939,-1.47903 4.81616,-2.64639 1.02861,-1.10492 1.29169,-1.64646 0.69736,-1.43558 -5.4814,1.94509 -37.242559,1.60509 -43.233779,-0.4628 -5.93345,-2.04796 -11.74502,-1.28513 -14.55024,1.90984 -5.49655,6.26023 -8.42143,22.11035 -4.72152,25.58623 1.707,1.60365 1.82865,2.50638 0.2833,2.10226 -1.36706,-0.35749 -1.37186,-0.27882 -0.21965,3.60263 2.01469,6.78681 5.30847,11.91197 5.32464,8.28518 z m -15.03737,-28.01357 c 0.21735,-1.48026 1.11396,-4.41244 1.99244,-6.51597 1.85349,-4.43813 1.85983,-4.4352 -4.2421,-1.96094 -5.36212,2.17427 -5.41066,2.36719 -1.89883,7.54591 2.93648,4.33028 3.6266,4.48515 4.14849,0.931 z m 76.723689,-54.30176 c 3.621307,-0.80616 6.755797,-1.63483 6.965547,-1.84148 0.63778,-0.62833 -0.17762,-3.49205 -0.9943,-3.49205 -0.42028,0 -1.64945,-0.77732 -2.73149,-1.72736 l -1.967347,-1.72734 -2.89033,1.46464 c -2.80575,1.42178 -2.87959,1.5219 -2.52328,3.42119 0.44859,2.39119 -0.74935,3.12888 -2.84798,1.7538 -0.76044,-0.49826 -1.50542,-0.7072 -1.65552,-0.46433 -0.28777,0.46563 1.28419,4.07867 1.77454,4.07867 0.15728,0 3.24885,-0.65959 6.87016,-1.46574 z m 13.470847,-6.18344 c 1.11877,-0.46745 2.4642,-0.84992 2.98984,-0.84992 5.1129,0 2.34869,-3.60781 -4.94966,-6.46024 -6.86397,-2.68266 -7.69699,-2.29833 -4.57056,2.10877 1.65561,2.3338 2.24056,3.66285 2.05026,4.65837 -0.32333,1.69139 1.26959,1.88446 4.48012,0.54302 z m 63.61421,-36.14815 c 0.4215,-2.56044 0.36161,-2.76325 -1.03031,-3.4907 -0.8128,-0.42478 -2.22671,-1.56 -3.142,-2.52272 -2.64095,-2.77779 -2.72618,-2.07156 -0.30478,2.52606 1.82979,3.47435 2.25974,4.88248 2.2922,7.50753 l 0.0396,3.23106 0.84878,-2.26643 c 0.46683,-1.24652 1.05015,-3.48968 1.29623,-4.9848 z M 194.72257,95.332549 c 3.0932,-0.45419 6.0067,-0.79648 6.474,-0.76065 0.4675,0.0358 2.0393,0.025 3.493,-0.0241 l 2.6431,-0.0892 0.3912,-4.175392 c 0.664,-7.086136 -4.1531,-10.459826 -11.937,-8.360066 -4.68103,1.26274 -11.10408,11.056498 -8.61374,13.134048 1.55069,1.29365 0.80096,1.26629 7.54944,0.27543 z m 169.6566,88.798301 c -1.4023,-0.12105 -2.7919,-0.45896 -3.088,-0.75093 -0.2961,-0.29196 -1.6504,-0.53083 -3.0097,-0.53083 -1.4862,0 -3.7144,-0.588 -5.589,-1.47477 -2.7099,-1.28204 -5.1184,-1.50646 -3.1569,-0.29417 1.7306,1.06953 -1.5236,2.60557 -5.1402,2.42633 -4.4036,-0.21824 -11.7461,-4.49479 -11.7461,-6.84137 0,-0.28647 -0.2007,-0.60585 -0.4459,-0.70973 -0.8788,-0.37219 -4.2689,-5.01197 -3.9183,-5.3626 0.4581,-0.45801 -0.6047,-2.47545 -1.304,-2.47545 -0.2909,0 -0.3755,0.4462 -0.188,0.99156 0.7095,2.0627 -4.8197,-4.32326 -7.0508,-8.1435 -1.2821,-2.19528 -2.7272,-4.32009 -3.2111,-4.72179 -0.4841,-0.40169 -0.8801,-1.33657 -0.8801,-2.07749 0,-0.74094 -0.2133,-1.34715 -0.4739,-1.34715 -1.1949,0 -3.4257,-6.0904 -3.7357,-10.1989 -0.1764,-2.33726 -0.6705,-6.08704 -1.098,-8.33284 -0.7783,-4.0886 -0.6651,-6.96553 0.2743,-6.96553 0.2753,0 0.5005,-0.38246 0.5005,-0.84992 0,-1.49612 1.586,-0.91735 4.4454,1.62222 1.5309,1.35966 4.7253,3.57691 7.0986,4.92722 2.3732,1.3503 4.4504,2.88163 4.6159,3.40296 0.2925,0.92137 5.0388,2.69249 10.2936,3.8411 1.3051,0.28527 3.5931,1.20067 5.0845,2.03423 2.5121,1.40404 2.7635,1.44461 3.4167,0.55128 0.9067,-1.24002 0.4602,-1.93055 -1.2485,-1.93055 -5.9574,0 -7.4648,-5.79316 -3.4212,-13.14934 2.2757,-4.14032 4.2555,-11.30801 4.2713,-15.46427 0.01,-1.55816 1.0376,-7.80499 2.2926,-13.881851 2.9723,-14.391868 3.3317,-19.726858 1.7428,-25.874978 -0.6576,-2.54499 -1.1957,-6.13743 -1.1957,-7.98319 0,-2.94175 -0.1592,-3.428457 -1.2896,-3.943524 -3.4216,-1.558959 -9.6075,-19.584232 -8.6044,-25.072455 0.4807,-2.629749 1.9999,-4.785373 6.0036,-8.518227 2.394,-2.231969 3.3949,-3.598711 3.5269,-4.816147 0.4332,-3.991683 2.7443,-6.51597 5.9659,-6.51597 1.2338,0 1.9943,-0.429239 2.7285,-1.540206 2.9891,-4.522288 11.6334,-10.92513 14.7497,-10.92513 0.6094,0 1.5519,-0.490749 2.0948,-1.09055 1.4076,-1.55558303 8.1185,-2.69786703 10.9456,-1.86311003 3.0645,0.90487803 5.5615,1.29883003 10.0574,1.58677603 7.6173,0.487855 9.0915,0.668977 12.7976,1.572288 5.2253,1.273567 8.6829,2.917196 10.3804,4.934546 1.8351,2.180993 6.8398,6.21108 9.0968,7.325386 2.1215,1.047382 4.2125,5.083444 4.2563,8.215785 0.046,3.328984 1.5008,8.964394 3.1563,12.231216 1.1255,2.22124 1.3802,3.390111 1.1396,5.230257 -0.1704,1.303353 0.033,3.772095 0.452,5.486077 0.8091,3.309875 0.6221,3.207191 4.4563,2.44804 1.2024,-0.238082 1.9276,0.08245 3.3073,1.462276 l 1.7673,1.767193 2.5201,-0.855628 c 3.256,-1.10542 3.226,-1.108839 5.2595,0.60224 3.4274,2.883975 3.4907,7.317568 0.1245,8.711931 -3.3964,1.406806 -4.4723,11.573126 -1.6576,15.662766 6.6524,9.66618 2.3817,32.910069 -5.0859,27.679579 l -1.2593,-0.88204 -0.1257,4.70663 c -0.3607,13.50419 -0.1955,16.97799 0.8339,17.53004 1.5465,0.82928 1.1987,2.69311 -0.7046,3.77617 -1.4045,0.79921 -1.6968,1.32698 -1.6999,3.06873 -0.01,2.81791 -2.0203,8.05246 -3.953,10.2666 -0.8618,0.98727 -2.2142,3.0699 -3.0054,4.62806 -0.7912,1.55817 -2.2272,3.58191 -3.1912,4.49721 -0.964,0.91529 -1.7526,1.96646 -1.7526,2.33592 0,0.36945 -1.0837,1.67361 -2.4081,2.89814 -1.3245,1.22451 -3.1118,3.2952 -3.972,4.60151 -0.8601,1.30632 -2.5175,3.0139 -3.6829,3.79462 -2.9285,1.96175 -7.3265,5.01833 -10.1695,7.06766 -1.3112,0.9453 -2.7875,1.71874 -3.2805,1.71874 -0.9853,0 -3.4553,1.27605 -8.217,4.24532 -1.714,1.06878 -3.6806,1.95316 -4.3702,1.96528 -0.6896,0.0121 -2.6019,0.56302 -4.2496,1.22418 -6.6256,2.65879 -15.0235,3.38642 -27.0764,2.34607 z" /></svg>
