<svg
   width="24"
   height="24"
   viewBox="0 0 161.89665 224.64215"
   version="1.1"
   id="svg500"
   xml:space="preserve"
   xmlns="http://www.w3.org/2000/svg"
   xmlns:svg="http://www.w3.org/2000/svg"><defs
     id="defs497" /><g
     id="layer1"
     transform="translate(-27.147105,-32.399318)"><path fill="currentColor"
                                                        d="m 119.08981,256.8976 c -9.47644,-0.61835 -14.82887,-1.77288 -19.06977,-4.1134 -0.883999,-0.48787 -3.078651,-1.97094 -4.877006,-3.29572 -1.809255,-1.33281 -4.695838,-3.13496 -6.462519,-4.03468 -2.676377,-1.363 -3.519387,-1.95214 -5.212064,-3.64244 -3.180231,-3.17577 -2.961018,-1.96983 -2.733818,-15.03926 l 0.195787,-11.26243 0.691155,-0.69502 c 0.380135,-0.38227 0.869749,-1.21587 1.08803,-1.85245 0.290409,-0.84694 0.751763,-1.42472 1.719792,-2.1538 1.57204,-1.184 1.803582,-1.99498 1.369766,-4.79767 -0.276553,-1.78668 -0.267007,-1.84853 0.369509,-2.3946 0.359365,-0.30831 1.968109,-1.31232 3.574984,-2.23114 1.606875,-0.91881 3.255835,-1.93708 3.664357,-2.26283 l 0.742765,-0.59226 -0.566589,-1.1106 c -0.311624,-0.61084 -0.712997,-1.1105 -0.89194,-1.11037 -0.178945,1.3e-4 -1.63504,0.35461 -3.235769,0.78773 -1.600729,0.43312 -3.242583,0.7902 -3.648562,0.79351 -1.17671,0.01 -2.676916,-0.92002 -3.482276,-2.15783 -2.602114,-3.99935 -3.67125,-5.24527 -5.037934,-5.87096 -0.795131,-0.36402 -2.509092,-1.66576 -4.093205,-3.10874 -2.267243,-2.06526 -2.873478,-2.7892 -3.607096,-4.3074 l -0.881825,-1.8249 -2.324552,-1.10817 c -1.278501,-0.60949 -2.732929,-1.45401 -3.23206,-1.8767 -1.189384,-1.00723 -4.114231,-2.22886 -5.3364,-2.22886 -1.390512,0 -2.647598,-0.59901 -5.813393,-2.77011 -2.130581,-1.46114 -3.099953,-1.96354 -4.069037,-2.10887 -1.007002,-0.15101 -1.541153,-0.44239 -2.562815,-1.39803 -0.709867,-0.664 -1.547485,-1.63667 -1.861379,-2.16148 -0.313891,-0.52482 -1.139261,-1.52335 -1.83416,-2.21895 -1.473234,-1.47472 -2.304933,-3.42221 -2.540971,-5.94988 -0.131762,-1.41103 -0.35138,-1.98728 -1.317503,-3.45704 -2.263333,-3.4432 -4.551087,-8.42864 -5.362382,-11.68564 -1.026893,-4.12252 -1.409248,-6.94841 -1.295352,-9.57359 0.07837,-1.80644 0.206981,-2.3493 0.718373,-3.03225 l 0.622908,-0.83188 -1.051369,-1.42319 c -1.497262,-2.02676 -2.095709,-3.31317 -2.447827,-5.26181 -0.169495,-0.93797 -0.655207,-3.23622 -1.079363,-5.10721 -0.424156,-1.87099 -0.771194,-3.69382 -0.771194,-4.05073 0,-0.79299 2.285989,-3.29662 3.563617,-3.9029 1.70447,-0.80882 3.769503,-0.30244 6.013085,1.47451 0.852268,0.67501 1.100688,0.76451 1.287478,0.46387 0.333677,-0.53707 3.509889,2.6646 7.439194,7.49882 1.744644,2.14644 3.326146,3.90261 3.514456,3.90261 0.608287,0 1.052229,-0.82843 0.972907,-1.81554 -0.04254,-0.52942 -0.305938,-2.15321 -0.585327,-3.60842 -0.779656,-4.06089 -0.752584,-4.2326 0.923263,-5.85578 2.515709,-2.43666 4.231833,-2.40111 7.905343,0.16373 l 1.989706,1.38921 1.54595,-0.93341 c 1.304957,-0.78792 2.601341,-1.33129 3.94172,-1.65216 0.153506,-0.0367 0.442423,-0.56169 0.642038,-1.16653 0.434919,-1.31781 0.560805,-1.4151 1.412224,-1.09139 0.648999,0.24675 0.672735,0.20579 1.739106,-3.00095 0.594619,-1.78811 1.622512,-5.49558 2.284206,-8.238826 0.661691,-2.743242 1.614736,-6.34565 2.117876,-8.00535 0.503137,-1.659699 0.841923,-3.13555 0.752853,-3.279666 -0.08907,-0.144119 -0.512191,-0.210627 -0.940271,-0.147799 -0.775784,0.113861 -0.777742,0.110707 -0.5999,-0.966756 0.09814,-0.594545 0.200575,-1.106818 0.227648,-1.138386 0.02707,-0.03157 0.40042,0.03892 0.829669,0.156639 0.463746,0.127183 1.033169,0.10132 1.403226,-0.06373 0.934249,-0.416692 0.647504,-1.971596 -0.622911,-3.377793 -1.333791,-1.476348 -2.426788,-3.899802 -2.798741,-6.205535 l -0.310836,-1.92686 -0.958686,0.603883 c -0.527277,0.332137 -1.101058,0.884841 -1.275066,1.228235 l -0.316384,0.624354 -0.282186,-0.742204 c -0.473681,-1.245881 0.07254,-2.595573 1.60977,-3.977672 0.740733,-0.665983 1.449914,-1.210879 1.575959,-1.210879 0.126045,0 0.41756,-0.3643 0.647811,-0.809556 1.074359,-2.077583 3.576492,-4.004077 6.870994,-5.290262 0.873125,-0.340873 1.885156,-0.877636 2.248958,-1.192813 0.863124,-0.747755 3.943416,-2.761536 4.224062,-2.761536 0.119841,0 0.586835,-0.344646 1.037767,-0.765879 l 0.819878,-0.765878 -0.42423,-1.015326 c -0.298231,-0.713766 -0.376825,-1.418685 -0.264615,-2.373402 0.175844,-1.496161 1.270468,-4.972304 2.053987,-6.522744 0.275772,-0.545703 0.390911,-0.992188 0.255862,-0.992188 -0.135048,0 -0.846897,0.311994 -1.581883,0.693318 -1.152149,0.597756 -1.529315,0.668077 -2.736397,0.510187 -0.77003,-0.100723 -2.114431,-0.513194 -2.987556,-0.916603 l -1.5875,-0.73347 1.26251,-0.602301 c 0.69438,-0.331265 1.544806,-0.963012 1.889839,-1.40388 0.492419,-0.629195 1.041006,-0.906634 2.550893,-1.290074 1.057957,-0.268672 1.980401,-0.545333 2.04987,-0.614802 0.06947,-0.06947 -0.294712,-0.592322 -0.809287,-1.161896 -1.429382,-1.582154 -1.484746,-2.345106 -0.299698,-4.129917 0.814877,-1.227294 1.015296,-1.80028 1.140946,-3.26188 0.08384,-0.975181 0.271489,-1.773057 0.41701,-1.773057 0.145521,0 0.681302,0.779995 1.190625,1.733323 0.509323,0.953327 1.241856,2.143952 1.627854,2.645833 0.385996,0.501881 0.846077,1.448292 1.022403,2.103136 0.176327,0.654844 0.360535,1.333577 0.409353,1.508295 0.04882,0.174719 0.823476,-0.38362 1.721461,-1.240753 3.382381,-3.228502 8.175191,-4.879437 12.314751,-4.241946 2.67316,0.411667 5.32469,1.795454 6.96346,3.634114 1.34706,1.511372 4.51572,7.304133 4.51572,8.255388 0,0.269524 0.51855,1.248027 1.15235,2.174452 1.55173,2.26818 2.29683,3.757633 2.82803,5.653158 l 0.44487,1.5875 1.02852,-0.05895 1.02852,-0.05895 -1.12448,0.531982 c -1.71594,0.811795 -1.44889,1.145072 0.76856,0.959167 1.04117,-0.08729 1.78531,-0.05992 1.65365,0.06082 -0.2041,0.187158 -2.47168,1.115348 -4.18906,1.714712 -0.44594,0.155628 -0.37938,0.264641 0.52916,0.866785 1.71575,1.137119 1.70532,1.210257 -0.15137,1.061625 -1.92413,-0.15403 -2.36583,-0.237297 -2.84427,-0.536189 -0.1819,-0.113636 -0.33073,-0.131011 -0.33073,-0.03861 0,0.358214 2.38098,3.233735 3.68998,4.456404 1.21502,1.134882 1.47534,1.2666 2.21679,1.121656 0.46206,-0.09033 2.98323,-1.387287 5.6026,-2.882141 6.88549,-3.929478 7.12256,-4.023317 10.16432,-4.023317 1.39463,0 2.61847,-0.115549 2.71964,-0.256776 0.10118,-0.141227 -0.0476,-0.631531 -0.33072,-1.089565 -0.61659,-0.997664 -0.68369,-1.81783 -0.13137,-1.605886 0.23194,0.089 0.44798,-0.05657 0.547,-0.368567 0.23363,-0.736116 0.57995,-0.638728 1.06514,0.29953 0.28151,0.544393 0.55538,0.763838 0.82442,0.660601 0.76438,-0.293323 0.90204,0.152799 0.33184,1.075407 -0.41707,0.674833 -0.52953,1.169371 -0.41975,1.845839 0.22569,1.390806 -1.18448,4.846084 -2.92883,7.17636 -0.78888,1.053859 -1.54355,1.983621 -1.67707,2.066136 -0.41944,0.259229 -0.26557,0.605367 0.35257,0.793134 0.32742,0.09946 0.99499,0.48043 1.48348,0.846611 l 0.88817,0.665779 0.62367,-0.762635 c 0.70785,-0.865569 0.84388,-0.463942 0.23903,0.705713 -0.35387,0.68431 -0.35667,0.8715 -0.0227,1.517359 0.20954,0.405209 0.45571,1.208881 0.54704,1.785937 l 0.16606,1.049189 -0.59074,-1.058333 -0.59074,-1.058333 -0.19606,1.099674 c -0.1975,1.107718 -0.90789,2.684119 -1.65061,3.662826 -0.36982,0.48732 -0.39762,0.379373 -0.35145,-1.365049 0.0276,-1.041818 -0.0227,-1.967918 -0.11168,-2.057995 -0.089,-0.09008 -0.76113,0.137239 -1.49363,0.505153 -0.7325,0.367913 -1.48022,0.668932 -1.6616,0.668932 -0.36374,0 -0.23731,3.87427 0.30878,9.462432 0.16018,1.639078 0.23802,4.556109 0.173,6.482292 -0.1111,3.290789 -0.17937,3.65901 -1.13125,6.101223 -0.94797,2.432152 -1.125,2.694092 -2.75659,4.078702 -1.99305,1.69137 -3.43714,2.40951 -5.2854,2.6284 -1.62942,0.19298 -3.40798,-0.58421 -5.78472,-2.52779 -0.9095,-0.74376 -1.65364,-1.28165 -1.65364,-1.19532 0,0.32981 2.18289,4.3342 2.66688,4.89224 0.64084,0.73891 0.64633,1.21912 0.0162,1.41911 -0.81715,0.25936 -1.26759,-0.0912 -1.61721,-1.25874 -0.18293,-0.61087 -0.92984,-2.3013 -1.65979,-3.75651 -1.68363,-3.356408 -2.39215,-4.020176 -2.75361,-2.579684 -0.10041,0.400184 -0.56884,1.575254 -1.04094,2.611274 -2.62733,5.7656 -3.13322,10.47173 -1.52404,14.17747 l 0.42551,0.97989 1.01315,-0.51687 c 1.3701,-0.69897 2.65434,-0.652 4.94229,0.18074 2.44008,0.88812 3.29411,1.81741 4.04034,4.39643 0.30514,1.05458 0.7368,2.42807 0.95923,3.05221 0.39691,1.11368 0.38413,2.89941 -0.0274,3.82614 -0.15741,0.3545 -0.0825,0.46303 0.31948,0.46303 0.61906,0 1.23798,0.65182 0.9939,1.04674 -0.0939,0.1519 -0.34225,0.27617 -0.55194,0.27617 -0.20969,0 -0.38126,0.11907 -0.38126,0.26459 0,0.14552 0.32742,0.26722 0.72761,0.27044 0.40018,0.003 3.52557,0.17207 6.94531,0.37522 7.07592,0.42033 8.34753,0.73303 10.42799,2.56433 1.57466,1.38606 2.3095,2.68597 3.27075,5.78584 0.42869,1.38245 1.7392,5.07338 2.91225,8.20208 1.17306,3.1287 3.15687,8.66511 4.40847,12.30313 3.30911,9.61853 3.34301,9.70481 3.69742,9.41068 0.41733,-0.34635 2.02706,1.71792 3.08085,3.95078 0.4464,0.94588 1.10156,2.32697 1.45591,3.06908 0.6501,1.36149 0.67913,3.04186 0.22639,3.04186 -0.22774,0 -0.41727,-0.11582 -0.19313,0.29836 0.65833,1.21655 1.29286,2.05736 1.42286,2.05736 0.13,0 0.16406,-0.52752 0.0757,-1.17226 -0.14301,-1.04336 -0.0809,-1.24623 0.56524,-1.84502 0.42752,-0.39621 0.66354,-0.83533 0.57417,-1.06822 -0.19947,-0.51983 0.17915,-0.73104 0.95942,-0.5352 0.65923,0.16545 1.77613,2.06749 1.77613,3.02467 0,0.27856 0.11907,0.58005 0.26459,0.66999 0.14552,0.0899 0.26458,0.37551 0.26458,0.6346 0,0.2591 0.29766,0.60671 0.66146,0.77247 0.3638,0.16576 0.66146,0.46764 0.66146,0.67085 0,0.3834 1.46038,0.81 1.88162,0.54966 0.29366,-0.18149 1.39203,0.14009 1.18514,0.34698 -0.27347,0.27347 0.76182,0.84499 1.54606,0.85349 0.42699,0.005 1.28118,0.25279 1.89818,0.55148 0.7946,0.38466 1.80298,0.572 3.45698,0.64227 2.78979,0.11852 3.51018,0.22191 4.55146,0.65323 0.94258,0.39042 1.66057,1.75832 1.82695,3.48066 0.14791,1.53106 -0.26349,2.35369 -1.17708,2.35369 -0.37788,0 -1.09429,0.25168 -1.59203,0.55929 -0.54297,0.33558 -1.49883,0.60158 -2.38962,0.665 -0.81657,0.0581 -1.61401,0.20983 -1.7721,0.33711 -1.00611,0.81005 -6.49251,0.44157 -7.88128,-0.52933 -0.84442,-0.59034 -1.81551,-0.34955 -2.79224,0.69235 -0.84947,0.90614 -6.46163,2.50891 -8.78505,2.50891 -0.4427,0 -0.80491,0.11906 -0.80491,0.26458 0,0.14552 0.15784,0.26459 0.35076,0.26459 0.19291,0 0.63368,0.30116 0.97948,0.66925 0.34581,0.36809 0.78575,0.60901 0.97765,0.53537 0.19234,-0.0738 1.1069,0.60544 2.03793,1.51355 1.37167,1.33792 1.67354,1.78179 1.60669,2.36244 -0.13688,1.18899 -0.69261,2.62407 -1.22064,3.1521 -0.53832,0.53832 -1.42514,0.66115 -1.68916,0.23395 -0.0899,-0.14552 -0.66251,-0.2683 -1.27239,-0.27285 -0.62782,-0.005 -1.68277,-0.29059 -2.43178,-0.65904 -0.7276,-0.35792 -1.51673,-0.65186 -1.75362,-0.65319 -0.23689,-0.001 -0.85298,-0.17885 -1.3691,-0.3945 l -0.93838,-0.39208 -0.18533,0.84382 c -0.10194,0.4641 -0.17809,1.62281 -0.16924,2.5749 0.009,0.95209 -0.11472,2.44544 -0.27461,3.31857 -0.15988,0.87312 -0.31031,2.30187 -0.33428,3.175 -0.0705,2.56862 -0.31457,3.18198 -1.79601,4.51393 -1.49074,1.34031 -2.74676,2.03319 -5.74714,3.17039 -1.0914,0.41366 -2.02444,0.77915 -2.07342,0.81218 -0.049,0.033 0.38825,0.66391 0.97162,1.40193 0.58337,0.73801 1.36077,1.96794 1.72755,2.73317 0.65753,1.37183 0.66941,1.51362 0.84773,10.12257 0.16105,7.77525 0.13314,8.84487 -0.25495,9.76894 -0.64987,1.5474 -5.49194,6.25392 -7.30394,7.09946 -2.41373,1.12633 -7.58374,2.81486 -10.33586,3.37571 -3.09073,0.62985 -8.28044,0.83815 -13.07977,0.525 z m 41.15859,-64.67672 c 0.49556,-0.50083 0.24871,-1.45259 -0.52513,-2.02472 -0.59864,-0.44259 -0.87137,-0.97012 -1.20465,-2.3301 -0.5085,-2.075 -0.9155,-2.8877 -0.93956,-1.87612 -0.0188,0.79008 -0.5668,2.90138 -0.87995,3.39011 -0.13826,0.21579 -0.06,0.52707 0.20658,0.82164 0.23604,0.26082 0.35521,0.66698 0.2648,0.90256 -0.18981,0.49464 0.24411,0.99629 1.36162,1.57418 0.5398,0.27914 0.80571,0.63002 0.84595,1.11628 0.10988,1.32759 0.4573,1.32787 0.53961,5.3e-4 0.0451,-0.72761 0.19393,-1.43603 0.33073,-1.57427 z m -5.15567,-7.02469 c 0.24818,0 0.60595,-0.20836 0.79503,-0.46302 0.29609,-0.39878 0.42301,-0.41459 0.91483,-0.11396 0.31407,0.19199 0.61932,0.30079 0.67832,0.24179 0.059,-0.059 -0.12826,-0.8114 -0.41613,-1.67198 -0.28788,-0.86059 -0.52634,-1.71353 -0.52992,-1.89543 -0.012,-0.60735 0.64877,-0.33868 1.18412,0.4815 0.55777,0.85453 1.39321,1.45462 1.65736,1.19048 0.14673,-0.14674 -0.84681,-1.67223 -4.52475,-6.94734 -0.88919,-1.27533 -1.84919,-2.33544 -2.33383,-2.57721 l -0.82329,-0.41071 0.18632,3.37096 c 0.10247,1.85403 0.35666,3.88114 0.56486,4.50469 0.20819,0.62355 0.37854,1.37508 0.37854,1.67008 0,0.29499 0.19142,1.12159 0.42538,1.83689 0.369,1.12816 0.48944,1.26625 0.90865,1.0419 0.26579,-0.14225 0.68632,-0.25864 0.93451,-0.25864 z m -11.51799,-10.38697 c -0.56489,-1.63825 -1.57345,-4.31266 -2.24125,-5.94313 -2.56851,-6.27121 -3.21893,-10.60752 -2.43036,-16.20302 0.23502,-1.66765 0.42731,-3.18569 0.42731,-3.37344 0,-0.23208 -0.44466,-0.34973 -1.38907,-0.36752 -0.76398,-0.0144 -2.0439,-0.10373 -2.84427,-0.19854 -0.80036,-0.0948 -2.06182,-0.0665 -2.80323,0.063 l -1.34803,0.23534 0.23178,1.21997 c 0.12749,0.67098 0.16923,1.63669 0.0928,2.14601 -0.17763,1.1832 0.53709,2.0884 1.81234,2.29534 1.07877,0.17506 0.75558,-0.42584 6.51437,12.11238 l 3.76166,8.19001 -0.75739,0.60607 c -0.41657,0.33334 -0.84669,0.60666 -0.95583,0.60738 -0.87514,0.006 1.71337,1.47555 2.76798,1.57166 0.10357,0.009 -0.27388,-1.32323 -0.83878,-2.96148 z M 84.561688,119.70408 c 0,-0.077 0.366189,-2.59598 0.813753,-5.59771 l 0.813755,-5.45768 -0.747609,-2.9351 c -0.672071,-2.63855 -0.744739,-3.34947 -0.719223,-7.036148 l 0.02839,-4.101042 -0.58751,3.96875 c -1.832192,12.37686 -2.230832,15.31856 -2.384327,17.59479 l -0.1695,2.51354 1.013116,0.56662 c 0.966411,0.5405 1.939157,0.78328 1.939157,0.48398 z M 132.95484,82.041677 c 0.30512,-1.800868 0.55476,-3.660103 0.55476,-4.131635 V 77.05271 l -1.78593,-0.136573 c -0.98227,-0.07512 -2.32172,-0.327504 -2.97657,-0.560866 -0.65484,-0.233363 -1.76091,-0.426027 -2.45793,-0.428146 -1.4353,-0.0044 -3.08443,-0.73583 -4.08571,-1.812214 -0.77811,-0.836472 -1.80828,-2.821249 -3.13246,-6.035182 -1.15387,-2.800546 -1.43074,-3.21328 -1.7604,-2.624215 -0.38605,0.68983 -0.74611,0.479034 -0.46131,-0.270068 0.35015,-0.920959 0.0631,-1.315185 -0.55217,-0.758362 -0.47165,0.426834 -0.48502,0.406453 -0.33599,-0.511929 0.19541,-1.204172 0.0221,-1.208058 -0.68164,-0.01529 -0.45636,0.773465 -0.5553,1.378048 -0.5553,3.393017 v 2.451851 l 0.98237,0.517327 c 1.097,0.577686 2.78834,3.172103 3.27258,5.019932 0.22728,0.867304 0.4527,1.139997 1.15113,1.392549 0.62972,0.227711 1.23691,0.861709 2.20856,2.306045 1.53996,2.289114 2.63969,3.143602 4.38216,3.404899 1.28287,0.192379 1.56379,0.606282 0.82668,1.218031 -0.3597,0.298516 -0.33947,0.407183 0.17841,0.958437 0.32125,0.341961 0.89077,0.631328 1.26558,0.643041 0.37482,0.01172 1.21727,0.163063 1.87211,0.336336 0.8012,0.212002 1.24716,0.226671 1.36347,0.04485 0.0951,-0.148606 0.42248,-1.74363 0.7276,-3.544498 z M 75.557563,80.619629 c -0.96356,-1.564261 -1.579208,-4.074226 -1.579208,-6.438344 V 71.96587 l -0.694992,0.316659 c -0.672255,0.3063 -0.690107,0.373195 -0.545737,2.044848 0.205907,2.384219 1.06693,4.976646 2.045904,6.159961 1.008808,1.219377 1.494827,1.302443 0.774033,0.132291 z m 57.687457,-6.401025 v -1.175501 l -3.37344,-0.08127 c -1.85539,-0.0447 -3.4114,-0.06314 -3.45781,-0.04099 -0.0464,0.02215 0.42461,0.3438 1.04669,0.714767 0.90705,0.540895 1.20869,0.611526 1.52298,0.356597 0.32091,-0.260302 0.36245,-0.239178 0.22933,0.1166 -0.128,0.342074 0.12878,0.520435 1.20723,0.838551 0.7534,0.222235 1.69723,0.413669 2.09742,0.425405 0.68777,0.02016 0.7276,-0.04301 0.7276,-1.15416 z m -8.73125,0.284623 c 0,-0.05342 -0.50601,-0.416203 -1.12448,-0.806175 l -1.12448,-0.709043 0.91605,0.806175 c 0.81503,0.717272 1.33291,0.992759 1.33291,0.709043 z m 15.6686,-1.044567 c -0.68762,-0.306824 -0.98565,-0.117562 -0.75625,0.48024 0.13371,0.348456 0.26184,0.365752 0.75486,0.101899 l 0.5938,-0.317796 z M 81.122105,70.7639 c 0,-0.218281 -0.106325,-0.396875 -0.236276,-0.396875 -0.129952,0 -0.304808,0.178594 -0.388572,0.396875 -0.09277,0.241752 -5.29e-4,0.396875 0.236276,0.396875 0.213714,0 0.388572,-0.178594 0.388572,-0.396875 z m 16.539834,-1.173221 0.04588,-1.303917 -0.819553,0.625102 c -0.450754,0.343808 -1.160036,0.754555 -1.576183,0.912773 -0.676225,0.257101 -0.736174,0.237943 -0.564121,-0.180282 0.49812,-1.210831 0.490196,-1.459216 -0.04117,-1.290568 -0.490873,0.155797 -0.503087,0.08739 -0.253656,-1.420813 0.214884,-1.299305 0.178766,-1.848694 -0.200668,-3.0524 l -0.462719,-1.467908 -1.182254,1.12676 c -1.515771,1.444622 -1.96039,1.698945 -1.96039,1.121346 0,-0.505005 -0.109389,-0.481573 -2.711979,0.58088 -1.665386,0.67986 -1.785938,0.784579 -1.785938,1.551389 0,1.086964 0.420111,1.457317 1.653109,1.457317 0.777975,0 1.163037,-0.168489 1.632574,-0.714361 0.600509,-0.698133 0.630275,-0.704006 1.310228,-0.258485 0.382664,0.250732 0.695756,0.561745 0.695756,0.691139 0,0.129392 0.780661,0.792327 1.734804,1.47319 1.19435,0.85227 2.121657,1.297564 2.976562,1.429348 0.682967,0.105283 1.291728,0.153617 1.352799,0.107412 0.06107,-0.0462 0.131686,-0.670769 0.156919,-1.387922 z M 85.516038,68.625593 c -0.08833,-0.230182 -0.1606,-0.825495 -0.1606,-1.322917 0,-0.61106 -0.123661,-0.904401 -0.381259,-0.904401 -0.499626,0 -0.622729,0.22842 -0.833514,1.54659 -0.175729,1.09895 -0.175546,1.099243 0.680098,1.099243 0.671743,0 0.821322,-0.09004 0.695275,-0.418515 z M 134.6326,67.5889 c 0.21558,-0.654844 0.32951,-1.190625 0.25317,-1.190625 -0.0763,0 -0.89716,0.443627 -1.82405,0.985835 -1.81092,1.059341 -1.76671,1.338403 0.21808,1.376817 0.90942,0.0176 0.9818,-0.0451 1.3528,-1.172027 z m -59.309992,0.661458 c 0.282212,0 2.359914,-1.967661 2.359914,-2.234925 0,-0.0991 -0.473496,0.08594 -1.052216,0.411195 -1.197272,0.672904 -2.83926,2.284103 -2.034998,1.996839 0.266562,-0.09521 0.593849,-0.173109 0.7273,-0.173109 z m 56.955502,-2.730034 c 1.33217,-0.922671 2.9223,-2.025322 3.53362,-2.450335 1.11634,-0.776119 1.97336,-2.227964 1.31517,-2.227964 -0.69971,0 -6.26256,2.972951 -8.58134,4.586118 l -2.4505,1.704808 0.99529,0.399632 c 1.27237,0.510884 1.89158,0.270704 5.18776,-2.012259 z m 7.19162,-1.716783 c -0.0815,-0.08146 -0.29495,-1.7e-4 -0.47443,0.180652 -0.25936,0.261308 -0.22897,0.291698 0.14811,0.148114 0.26094,-0.09936 0.40778,-0.247304 0.32632,-0.328766 z m 2.10967,-0.844849 c 0.19341,-0.312944 -0.0655,-0.312944 -0.79375,0 -0.51018,0.219231 -0.50837,0.228057 0.0505,0.245985 0.31883,0.01024 0.65328,-0.100465 0.74322,-0.245985 z m -0.14579,-2.208525 c 1.67266,-0.0633 1.08033,-0.5696 -0.66639,-0.5696 -1.29018,0 -1.57768,0.08234 -1.653,0.473434 -0.0745,0.386832 0.0316,0.442627 0.57985,0.305017 0.36907,-0.09263 1.15186,-0.186613 1.73954,-0.208851 z m -19.74795,-5.133663 c -0.0911,-0.254662 -0.47433,-0.998802 -0.85159,-1.653646 l -0.68592,-1.190625 -0.0844,1.18664 c -0.0684,0.961592 0.025,1.275207 0.49233,1.653646 0.75401,0.610558 1.34736,0.612651 1.12958,0.004 z"
                                                        id="path665" /></g></svg>
