<svg
   width="24"
   height="24"
   viewBox="0 0 86.138237 194.75336"
   version="1.1"
   id="svg5"
   xml:space="preserve"
   xmlns="http://www.w3.org/2000/svg"
   xmlns:svg="http://www.w3.org/2000/svg"><defs
     id="defs2" /><g
     id="layer1"
     transform="translate(-64.953958,-23.662153)"><path
       fill="currentColor"
       d="m 80.00292,45.996478 c -0.387906,-1.030772 -0.381799,-1.063869 0.296031,-1.604351 1.069808,-0.853033 0.996249,-2.443459 -0.213796,-4.622533 L 79.132,38.053127 79.276164,39.90521 c 0.163028,2.094463 -0.138322,1.925505 -0.707864,-0.396875 -1.611238,-6.570041 1.754881,-14.816666 6.047888,-14.816666 0.266774,0 0.610357,-0.125313 0.763516,-0.278472 0.153159,-0.15316 0.563925,-0.31601 0.912813,-0.36189 0.348887,-0.04588 0.843597,-0.171775 1.099354,-0.279767 0.751969,-0.317514 2.201338,0.08677 2.93257,0.817997 0.55181,0.551809 0.831551,0.64521 1.495615,0.499356 0.560142,-0.123027 1.023692,-0.04388 1.475029,0.251846 0.361997,0.23719 0.781063,0.355308 0.931256,0.262483 0.150193,-0.09282 0.593315,-0.04381 0.984716,0.108919 0.391398,0.152731 1.20832,0.404401 1.815383,0.559268 1.630941,0.416067 5.01959,3.264192 6.50889,5.470659 1.27656,1.891271 1.81863,3.385794 2.91282,8.03085 0.35992,1.527969 1.67079,5.3975 2.91303,8.598958 1.24224,3.201458 2.57182,6.856325 2.95462,8.121925 3.28188,10.850557 5.33304,42.310901 3.01542,46.249949 -0.14386,0.2445 -0.15638,0.0921 -0.0326,-0.39688 0.28828,-1.1391 0.1819,-16.052308 -0.13023,-18.256245 -0.22564,-1.593199 -0.24775,-1.297329 -0.15815,2.116667 0.0724,2.759524 0.0235,3.80752 -0.16053,3.439583 -0.18323,-0.366363 -0.21524,0.406956 -0.10401,2.513542 0.0884,1.673489 0.26488,3.243241 0.39227,3.488335 0.29279,0.563308 0.29596,0.815991 0.008,0.638027 -1.18839,-0.734465 -0.34114,10.969331 1.14985,15.883951 0.91127,3.00372 0.17278,1.65568 -1.32327,-2.41552 -0.95204,-2.5908 -0.89007,-2.61334 -1.45505,0.52916 -0.71349,3.96849 -0.92231,3.24121 -1.21233,-4.22217 l -0.19492,-5.01593 -0.50427,1.70863 c -0.27735,0.93975 -0.71642,2.87114 -0.9757,4.29196 -0.51694,2.8327 -0.98808,3.83898 -0.7057,1.50728 0.25903,-2.13894 -0.12207,-3.04128 -0.70436,-1.66772 -1.44744,3.41433 -1.88313,4.324 -2.07103,4.324 -0.11584,0 -0.2862,0.23812 -0.37857,0.52916 -0.0924,0.29104 -0.2733,0.52917 -0.40205,0.52917 -0.12876,0 -0.0625,-0.56555 0.14726,-1.25677 0.46792,-1.54208 0.49761,-2.28236 0.0812,-2.025 -0.21951,0.13567 -0.25727,-0.054 -0.13373,-0.67169 0.0947,-0.4734 0.0946,-1.16967 -1.7e-4,-1.54727 l -0.17231,-0.68655 -0.24618,0.64625 c -0.1354,0.35543 -0.34755,1.78055 -0.47145,3.16694 -0.2732,3.05713 -1.18711,5.6828 -2.65137,7.61743 l -1.05226,1.39026 0.0446,5.3483 c 0.0479,5.75067 -0.31401,9.83747 -1.52991,17.27401 -0.37894,2.31763 -0.736911,4.57107 -0.795489,5.00763 -0.09759,0.72728 0.06297,0.91545 1.917229,2.247 5.63679,4.04779 8.0023,8.42427 11.08422,20.50717 1.74878,6.85623 2.24482,7.30271 5.39475,4.85579 0.34705,-0.26959 0.77965,-0.49017 0.96133,-0.49017 0.18169,0 0.38985,-0.22758 0.46259,-0.50573 0.10812,-0.41346 0.36515,-0.5022 1.40884,-0.48642 1.1137,0.0168 1.34553,-0.0774 1.81684,-0.73856 0.29713,-0.41681 0.80813,-1.03677 1.13556,-1.37768 1.25338,-1.30501 0.18428,-2.87356 -1.55108,-2.27568 -0.60288,0.20771 -1.15957,0.31423 -1.23709,0.23671 -0.0775,-0.0775 -0.31809,0.11199 -0.53462,0.42113 -0.39303,0.56113 -0.39497,0.56061 -1.15421,-0.30898 l -0.76051,-0.87105 0.56013,-0.59624 c 0.39132,-0.41653 0.50521,-0.76928 0.3779,-1.17042 -0.12824,-0.40405 -0.0108,-0.75662 0.39618,-1.18988 0.77537,-0.82535 0.91935,-3.49814 0.20069,-3.72573 -0.25379,-0.0804 -0.61601,-0.28716 -0.80492,-0.45953 -0.18891,-0.17237 -0.57657,-0.44543 -0.86146,-0.60682 -0.2849,-0.16138 -0.50609,-0.42927 -0.49154,-0.59531 0.0146,-0.16604 0.0443,-0.69251 0.0662,-1.16993 0.0452,-0.98947 1.13953,-1.65344 2.52861,-1.53424 0.76925,0.066 1.83285,-0.34867 2.49091,-0.97116 0.71425,-0.67564 3.09589,0.93461 2.8473,1.92508 -0.18845,0.75083 0.20782,1.0807 1.98918,1.65589 1.561,0.50404 2.64015,1.90684 2.2165,2.88126 -0.11551,0.2657 -0.18903,0.61884 -0.16336,0.78477 0.0916,0.59217 -1.6134,1.31837 -2.67518,1.13944 -1.06558,-0.17957 -1.33862,0.19094 -0.59531,0.80783 0.61166,0.50764 0.47446,0.97964 -0.39688,1.36533 -0.91328,0.40425 -0.98625,0.62969 -0.31938,0.98659 0.381,0.20391 0.48239,0.14749 0.51509,-0.28664 0.0224,-0.29729 0.28517,-0.71175 0.58396,-0.92103 0.29879,-0.20928 0.54325,-0.5549 0.54325,-0.76805 0,-0.21315 0.32742,-0.51663 0.7276,-0.6744 0.40018,-0.15776 1.0857,-0.43717 1.52336,-0.62091 0.88481,-0.37146 3.62912,1.21468 4.25482,2.45917 0.15844,0.31513 0.48586,0.79152 0.7276,1.05864 0.7227,0.79857 0.077,4.6516 -0.78541,4.68672 -0.54312,0.0221 -1.39048,0.68805 -1.27116,0.99899 0.0845,0.22008 -0.40581,0.53 -1.39892,0.88432 -1.01236,0.3612 -1.56159,0.71182 -1.6256,1.03778 -0.0803,0.40885 -0.0299,0.43688 0.2972,0.1654 0.69913,-0.58023 1.56669,0.17277 1.63588,1.41987 0.0431,0.77751 0.87556,1.17522 1.2571,0.6006 0.35514,-0.53487 0.40169,-0.53937 1.21756,-0.11746 0.46656,0.24127 0.8483,0.3615 0.8483,0.26719 0,-0.0943 0.18625,-0.0169 0.41389,0.17201 0.24184,0.20071 0.35639,0.57253 0.27559,0.89449 -0.0761,0.30305 -0.0304,0.72554 0.10142,0.93886 0.16668,0.26969 0.0424,0.64658 -0.40788,1.23692 -0.35618,0.46698 -0.6476,1.04493 -0.6476,1.28433 0,0.2394 -0.47614,0.89274 -1.05808,1.45187 -1.51366,1.45433 -0.0587,2.98208 3.36086,3.52888 2.46723,0.39453 3.26231,1.37881 2.59964,3.21824 -0.57573,1.59808 -0.52071,2.24801 0.19081,2.25379 1.52212,0.0123 6.68707,1.55164 7.07648,2.10898 0.2189,0.31329 0.72368,0.96185 1.12175,1.44126 0.46995,0.56597 0.85949,1.51041 1.11083,2.69318 0.21289,1.00185 0.72064,3.01216 1.12833,4.46737 1.8638,6.65267 1.26019,7.36976 -6.79937,8.07763 -1.67349,0.14698 -5.3049,0.56314 -8.06979,0.9248 -2.7649,0.36166 -6.69396,0.84602 -8.73125,1.07635 -3.17488,0.35895 -14.93417,1.75809 -20.90209,2.48696 -2.38885,0.29176 -7.39119,0.77209 -9.906165,0.95121 -1.082768,0.0771 -2.047209,0.18875 -2.143202,0.24808 -0.209764,0.12964 -9.461158,1.08503 -12.841181,1.3261 l -2.400969,0.17124 -0.504948,-0.75202 c -0.277677,-0.41361 -0.634777,-0.99014 -0.793556,-1.28118 -2.172796,-3.9827 -2.627551,-4.78182 -2.785462,-4.89479 -0.101706,-0.0728 -0.841777,-1.50151 -1.6446,-3.175 -0.802822,-1.67349 -1.786551,-3.51896 -2.186064,-4.10105 -0.39951,-0.58208 -1.014868,-1.71317 -1.367457,-2.51354 -1.304692,-2.9616 -1.613511,-3.63554 -3.004062,-6.55577 -1.713543,-3.59854 -1.669544,-3.8106 0.844319,-4.06945 4.551757,-0.46867 4.45857,-0.474 4.867341,0.27808 l 0.374952,0.68985 0.01058,-0.7276 c 0.0084,-0.57392 0.136337,-0.72837 0.605906,-0.73122 0.327422,-0.002 0.863203,-0.0754 1.190625,-0.16315 l 0.595313,-0.15954 v -8.01025 -8.01025 l 0.673626,-0.16907 c 0.968529,-0.24308 1.178468,-0.007 1.178468,1.32706 v 1.18412 l 1.25677,-0.14562 c 0.691224,-0.0801 2.976076,-0.2656 5.07745,-0.41225 2.101373,-0.14665 3.840101,-0.29358 3.863839,-0.32652 0.02373,-0.0329 -0.71764,-3.09597 -1.647507,-6.80675 -0.929868,-3.71078 -2.220198,-9.66391 -2.867403,-13.22917 -0.647203,-3.56526 -1.435293,-7.19666 -1.751314,-8.06979 -0.516676,-1.42751 -0.578557,-2.16078 -0.614027,-7.27604 -0.0217,-3.1287 -0.140554,-7.44096 -0.264133,-9.58281 l -0.224684,-3.89426 c 0,0 -0.263854,-2.13742 -1.31783,-2.79897 -0.962014,-0.60382 -1.202309,-1.47086 -0.644708,-2.32624 0.365533,-0.56073 0.344035,-0.58134 -0.646858,-0.62008 -1.85361,-0.0725 -1.75587,0.26029 -1.790023,-6.09396 -0.02961,-5.50892 -0.06668,-5.90509 -0.812567,-8.68508 -1.119058,-4.1708 -1.305753,-5.32749 -1.599626,-9.910667 -0.144317,-2.250752 -0.49834,-5.46544 -0.78672,-7.14375 -0.438163,-2.550025 -0.509804,-3.986265 -0.435962,-8.740013 0.09797,-6.306965 0.120325,-6.418421 2.157138,-10.754685 0.985501,-2.098082 1.086514,-2.470655 0.758721,-2.798447 -0.299561,-0.299562 -0.317251,-0.538282 -0.08513,-1.148811 0.161155,-0.423873 0.220131,-1.159147 0.131059,-1.633947 -0.110254,-0.587701 0.01193,-1.256377 0.382791,-2.094751 0.488299,-1.103879 0.503262,-1.277319 0.144399,-1.673858 -0.792456,-0.875654 -0.01426,-3.178833 1.074066,-3.178833 0.207719,0 0.377671,-0.178594 0.377671,-0.396875 0,-0.548976 0.513969,-0.49964 0.689076,0.06614 0.07882,0.254662 0.253674,0.669764 0.388572,0.922452 0.134898,0.252687 0.247092,0.669406 0.24932,0.926041 0.0035,0.398026 0.04175,0.408276 0.260532,0.06974 0.487857,-0.754907 0.290947,-1.85292 -0.456528,-2.545655 -0.39661,-0.367567 -0.76372,-0.540474 -0.815797,-0.384241 -0.138933,0.416793 -0.579758,0.346448 -0.579758,-0.09251 0,-0.207119 -0.316024,-0.752147 -0.702273,-1.211178 -1.520809,-1.807382 -0.753136,-5.026832 1.198637,-5.026832 0.295388,0 0.85137,-0.143206 1.235516,-0.318233 0.61246,-0.279056 0.75243,-0.248457 1.136931,0.248542 0.241165,0.311727 0.765413,0.646311 1.793929,0.837681 0.628933,0.296856 1.021044,0.09688 1.302439,-0.155182 0.05712,-0.05117 -0.338544,-0.642994 -0.494267,-0.971152 -0.500991,-1.05575 -1.196793,-2.628815 -1.414635,-3.207678 z M 103.16893,187.9046 c 1.92135,-0.1925 2.82048,-0.19059 3.01746,0.006 0.19772,0.19773 0.39574,0.18478 0.67054,-0.0438 0.21448,-0.17844 1.17577,-0.38397 2.1362,-0.45673 1.73432,-0.13139 1.74585,-0.13751 1.69138,-0.89668 -0.16054,-2.23733 -11.563089,-22.32531 -15.139629,-26.67163 -0.08325,-0.10116 -0.161803,2.22056 -0.174569,5.15938 -0.01471,3.38543 -0.184364,6.52317 -0.463021,8.5633 -0.241895,1.77101 -0.439809,3.29803 -0.439809,3.39339 0,0.0954 0.327494,0.13903 0.727763,0.097 1.375878,-0.14432 1.388904,-0.0889 1.388904,5.90699 v 5.57472 l 1.28692,-0.17071 c 0.986277,-0.13084 1.365276,-0.0763 1.622332,0.23342 0.300503,0.36209 0.366803,0.36122 0.637029,-0.008 0.21273,-0.29093 1.10821,-0.4933 3.0385,-0.68669 z m -22.043576,-0.25386 c 0.660004,0.11116 1.580789,-0.0199 1.916473,-0.59897 0.119788,-0.20662 0.04375,-0.56626 -0.154339,-0.69969 -0.186515,-0.12563 -0.441242,0.0917 -0.665115,0.11293 -0.193881,0.0184 -0.390489,-0.009 -0.584124,0.0122 -0.424089,0.0456 -0.99562,-0.0923 -1.255778,0.24571 -0.2479,0.32208 -0.325732,1.19164 0.07993,1.21668 0.188092,0.0116 0.515157,-0.31375 0.662953,-0.28886 z m 1.204369,-2.62158 c 0.390575,0 0.496093,-0.19696 0.496093,-0.92604 v -0.92604 H 81.5029 80.179983 v 1.09141 c 0,1.08126 0.0077,1.08987 0.826823,0.92604 0.454753,-0.0909 1.050065,-0.16537 1.322917,-0.16537 z m 4.464843,-1.21616 v -0.9005 H 85.339358 83.88415 v 0.88194 c 0,1.13137 -0.0195,1.11877 1.565322,1.01075 1.335638,-0.091 1.345094,-0.098 1.345094,-0.99219 z m -4.299479,-3.18393 c 1.214041,-0.32535 0.837507,-2.21449 -0.44138,-2.21449 -1.610659,0 -1.873724,0.18971 -1.873724,1.35122 0,1.09741 0.602745,1.32216 2.315104,0.86327 z m 3.704167,-0.26459 c 0.489495,-0.13117 0.595312,-0.34463 0.595312,-1.20083 v -1.04131 l -1.389062,0.08 -1.389063,0.08 -0.08136,1.12448 c -0.08711,1.20402 0.468357,1.43897 2.264172,0.95771 z M 105.96433,103.3966 c -0.0994,-0.79563 -0.30096,-1.4466 -0.44791,-1.4466 -0.15812,0 -0.19967,0.33748 -0.1018,0.82682 0.091,0.45476 0.16898,1.31796 0.17341,1.91823 0.007,0.88264 0.0605,1.0012 0.28254,0.61978 0.16403,-0.28182 0.20177,-1.0538 0.0938,-1.91823 z m -3.68282,-3.741623 c -0.16056,-0.855826 -0.22532,-0.928317 -0.45795,-0.512622 -0.18865,0.33709 -0.17867,0.686694 0.0328,1.150925 0.41802,0.91746 0.65126,0.56724 0.4251,-0.638303 z m 3.01529,-0.549248 c -0.0727,-0.775774 -0.47462,-1.20808 -0.49197,-0.529167 -0.0102,0.400182 0.10046,0.727604 0.24599,0.727604 0.14552,0 0.25621,-0.0893 0.24598,-0.198437 z M 101.53,97.258681 c -0.0671,-0.257432 -0.12638,-0.110869 -0.13177,0.325694 -0.005,0.436562 0.0495,0.647186 0.12197,0.468056 0.0725,-0.179131 0.0769,-0.536319 0.01,-0.79375 z m -2.530227,-8.032406 c 0.05286,-9.202314 -0.61238,-10.677004 -0.959133,-2.126171 -0.175664,4.331862 -0.144766,5.015661 0.283594,6.275874 0.650084,1.91252 0.640371,1.972186 0.675539,-4.149703 z m -19.110747,-0.203396 0.02638,-2.476079 -0.673698,0.169087 c -1.072983,0.269304 -2.118738,-0.970306 -2.514166,-2.980224 -0.32857,-1.67009 -0.785982,-2.202746 -0.774417,-0.901809 0.01254,1.411253 0.566304,3.123269 1.992061,6.158704 0.792581,1.687398 1.452923,3.239293 1.467427,3.448656 0.08805,1.270907 0.454475,-1.358194 0.476419,-3.418335 z m 23.547914,-0.103608 c -0.0166,-1.039815 -0.0917,-1.420707 -0.20235,-1.026115 -0.17379,0.619702 -0.0783,2.679761 0.12423,2.679761 0.0575,0 0.0926,-0.744141 0.0781,-1.653646 z m 11.01436,-2.984344 c -0.10389,-1.108773 -0.24365,-1.961208 -0.31056,-1.894298 -0.0669,0.06691 -0.0392,1.031402 0.0616,2.143316 0.10076,1.111917 0.24051,1.964349 0.31056,1.894297 0.07,-0.07005 0.0424,-1.034542 -0.0615,-2.143315 z m -0.48588,-3.228329 c -0.0671,-0.257432 -0.12638,-0.110869 -0.13177,0.325694 -0.005,0.436562 0.0495,0.647187 0.12197,0.468056 0.0725,-0.179131 0.0769,-0.536319 0.01,-0.79375 z m -11.37708,-0.264584 c -0.0671,-0.257431 -0.12639,-0.110868 -0.13178,0.325695 -0.005,0.436562 0.0495,0.647186 0.12197,0.468055 0.0725,-0.179131 0.0769,-0.536318 0.01,-0.79375 z m 12.1627,-1.98941 c -0.0734,-0.181901 -0.13345,-0.03307 -0.13345,0.33073 0,0.363802 0.06,0.51263 0.13345,0.330729 0.0734,-0.181901 0.0734,-0.479558 0,-0.661459 z m -0.25646,-2.243923 c -0.0671,-0.257431 -0.12638,-0.110868 -0.13177,0.325694 -0.005,0.436563 0.0495,0.647187 0.12197,0.468056 0.0725,-0.179131 0.0769,-0.536318 0.01,-0.79375 z m -0.26719,-1.179123 c -0.0845,-0.211066 -0.14716,-0.148373 -0.15985,0.159853 -0.0115,0.278913 0.051,0.435184 0.13896,0.347266 0.0879,-0.08792 0.0973,-0.316125 0.0209,-0.507119 z M 83.295179,57.882303 c 0.657061,-0.382209 0.97459,-0.435539 1.31495,-0.220845 0.370724,0.233846 0.668219,0.04286 1.711677,-1.098847 0.694632,-0.760036 1.680482,-1.580009 2.190779,-1.822161 1.047432,-0.497039 1.077936,-0.602322 0.544441,-1.879156 -0.435068,-1.041262 -0.487365,-1.050448 -3.384735,-0.594548 -1.783128,0.280573 -2.052725,0.393785 -2.052725,0.862 0,0.296455 -0.283419,1.07384 -0.629819,1.727528 -0.578922,1.092475 -1.263902,4.46524 -0.774676,3.814426 0.117628,-0.15648 0.603678,-0.51126 1.080108,-0.788397 z"
       id="path304" /></g></svg>
