<?xml version="1.0" encoding="UTF-8" standalone="no"?>
<svg
   width="24"
   height="24"
   viewBox="0 0 391.50021 769.95081"
   version="1.1"
   xml:space="preserve"
   style="clip-rule:evenodd;fill-rule:evenodd;stroke-linejoin:round;stroke-miterlimit:2"
   id="svg7"
   xmlns="http://www.w3.org/2000/svg"
   xmlns:svg="http://www.w3.org/2000/svg"><defs
     id="defs5" /><path
     id="path1117"
     d="m 322.02149,0.06149698 c -0.98698,-0.275292 -2.20228,0.376508 -3.85157,1.89843702 C 316.70166,3.314867 314.7125,4.6997 313.75,5.038059 312.7875,5.376423 312,6.326482 312,7.149387 c 0,1.841764 -3.04494,3.566407 -6.29687,3.566407 -3.3138,0 -16.66658,14.867077 -16.73828,18.636718 -0.0195,1.02451 -0.67883,2.988287 -1.46485,4.363282 -1.88111,3.290632 -1.88111,8.438825 0,10 0.825,0.684684 1.5,2.06427 1.5,3.066406 0,1.002136 2.25032,3.760904 5,6.128906 2.74973,2.368004 4.99973,5.115661 5,6.105469 2.7e-4,0.989808 0.61595,3.01482 1.36914,4.5 0.923,1.820007 1.60012,8.838125 2.07813,21.529297 l 0.70898,18.830078 -9.82812,-0.33008 -9.82813,-0.33008 -0.30078,4.11328 c -0.32304,4.41704 2.92648,9.6587 6.74024,10.86914 1.01907,0.32345 3.44889,2.091 5.39843,3.92969 1.96451,1.85276 5.12643,3.64107 7.0918,4.00977 1.95044,0.3659 3.99922,1.51286 4.55469,2.55078 0.55548,1.03792 2.02496,2.08376 3.26367,2.32226 4.38214,0.84378 9.64199,0.69201 10.25195,-0.29492 0.33992,-0.55 2.36492,-1 4.5,-1 2.13508,0 4.15934,-0.45075 4.5,-1.00195 0.35456,-0.57369 2.28428,-0.73704 4.51172,-0.38086 2.86324,0.45785 4.31391,0.20172 5.49024,-0.97461 0.87917,-0.87921 5.58501,-2.83744 10.45898,-4.34961 l 8.86133,-2.74805 1.24414,-5.85546 c 0.9332,-4.39743 1.77422,-6.05788 3.37891,-6.66797 3.49764,-1.32982 4.26611,-3.0422 6.01757,-13.39258 0.91868,-5.428948 2.1742,-10.675591 2.78907,-11.660156 0.82848,-1.326676 0.81177,-2.814994 -0.0664,-5.746094 -1.67694,-5.597094 -1.50781,-9.885263 0.41992,-10.625 3.05252,-1.171357 1.57086,-15.369485 -2.10547,-20.175781 -2.56416,-3.352355 -3,-4.793485 -3,-9.921875 v -6 h -5.64062 c -6.09971,0 -9.85938,-2.155683 -9.85938,-5.654297 0,-1.014751 -0.45,-1.845703 -1,-1.845703 -0.55,0 -1,-0.476348 -1,-1.058594 0,-4.851817 -13.23047,-14.189977 -20.42773,-14.417969 -3.53061,-0.111841 -4.04262,-0.467212 -5.06836,-3.513672 -0.73649,-2.18738 -1.49545,-3.38877402 -2.48242,-3.66406202 z M 152.14844,7.577122 c -7.58024,-0.152749 -15.46997,3.002673 -16.70898,9.607422 l -0.66211,3.53125 h -6.92188 c -9.74236,0 -18.85547,5.043752 -18.85547,10.435547 0,1.423601 -5.84515,12.775441 -6.98437,13.564453 -0.39706,0.274995 -0.96204,3.223237 -1.25586,6.550781 -1.000143,11.326943 -9.093802,24.23996 -16.332036,26.05664 -2.13372,0.535531 -2.488425,1.133753 -2.232422,3.765626 l 0.304687,3.126953 7.839844,0.292968 c 6.967608,0.261003 7.754427,0.483604 7.072266,2 -3.012364,6.696274 -1.481783,16.207028 2.607421,16.207028 2.90055,0 2.98047,-0.13106 2.98047,-4.876949 0,-5.840672 1.61038,-7.558384 7.1211,-7.595704 4.48695,-0.03039 4.97915,1.504709 2.17382,6.773438 -2.94512,5.531375 -3.08637,30.127465 -0.19921,34.699215 1.25839,1.99271 2.39592,2.96169 2.64062,2.25 0.63419,-1.8444 2.34008,-1.52759 4.94531,0.91992 1.27078,1.19384 2.60242,1.88002 2.95899,1.52344 0.85506,-0.85505 -2.54111,-9.69336 -3.72461,-9.69336 -0.50451,0 -0.91602,-4.05002 -0.91602,-9 0,-10.28298 2.0858,-12.30082 5.94336,-5.75 1.05261,1.78749 2.93421,4.24992 4.18164,5.47071 3.10415,3.03784 4.63589,21.76477 1.99414,24.38281 -15.12628,14.99055 -24.29857,18.58096 -17.61914,6.89648 2.01459,-3.52413 1.83858,-4.64084 -0.3125,-1.98437 -1.84871,2.28303 -6.1875,2.13953 -6.1875,-0.20508 0,-0.65728 -0.56475,-0.5874 -1.49609,0.18555 -1.19749,0.99381 -1.94374,0.95788 -3.75,-0.17969 -9.898564,-6.23412 -27.917811,-3.52823 -19.158207,2.87695 1.67502,1.22483 1.653817,1.30664 -0.345704,1.30664 -1.172652,0 -2.418017,0.4637 -2.767578,1.0293 -2.475427,4.00533 -6.906267,3.74839 -11.689453,-0.67578 -8.239152,-7.62074 -12.792968,-5.90672 -12.792969,4.8125 0,5.74131 -0.302587,6.92555 -2,7.83398 -1.101325,0.58942 -1.999999,2.09339 -2,3.34766 10e-7,3.18239 -4.778793,7.28358 -9.28125,7.96484 -2.079432,0.31463 -5.229452,1.29531 -7,2.17969 -1.770543,0.88438 -5.1609,2.04359 -7.533203,2.57617 -10.772302,2.41838 -15.258812,11.31528 -12.546875,24.875 1.093615,5.46805 18.109702,9.99923 22.832032,6.08008 1.264397,-1.04936 1.529296,-0.98864 1.529296,0.35351 0,0.89234 0.198529,1.62305 0.441407,1.62305 2.240442,0 35.870085,-4.28071 42.058593,-5.35351 C 87.591327,206.13287 101,206.17547 101,207.42678 c 0,1.36887 -4.869572,4.22706 -7.250001,4.25586 -1.51249,0.0183 -2.749999,0.52274 -2.75,1.12109 10e-7,0.71518 -1.370425,0.85638 -4,0.41211 -2.822019,-0.47678 -3.999999,-0.3222 -4,0.52539 0,0.76609 -1.08707,1.04248 -3,0.76172 -1.64999,-0.24217 -3,-0.11886 -3,0.27344 0,0.90651 -7.854865,2.16831 -15,2.41015 -4.010685,0.13575 -8.343224,1.40648 -16,4.69336 -16.140428,6.92882 -17.265511,6.65522 -19.1875,-4.66406 -0.291317,-1.7157 -1.119756,-2 -5.826171,-2 h -5.486329 l -0.298828,7.48828 c -0.298895,7.49478 -2.440626,12.01172 -5.6953115,12.01172 -0.630123,0 -3.0271843,1.61028 -5.326172,3.57813 L 0,241.87209 v 8.26758 c 0,9.91958 1.094896,11.37792 9.7871095,13.05273 5.5649055,1.07224 5.7802055,1.2381 8.2949215,6.35743 3.85969,7.85732 11.134531,14.77812 17.017578,16.18945 2.640525,0.63346 5.328076,1.78777 5.972656,2.56445 0.64458,0.77668 1.782825,1.41211 2.529297,1.41211 0.746472,0 2.226307,1.6875 3.287109,3.75 2.274016,4.42133 6.305807,8.36335 10.958985,10.71289 1.840981,0.92958 4.713056,3.24473 6.382812,5.14649 7.205243,8.20631 23.361535,10.90178 39.531252,6.5957 8.37144,-2.22939 27.23828,-1.96648 27.23828,0.37891 0,5.04546 -5.63199,14.88334 -12.47656,21.79492 -6.2208,6.28166 -10.39063,11.53214 -17.52344,22.0625 -2.808998,4.14699 -6.494426,8.05474 -9.304688,9.86718 -2.44797,1.57883 -2.765886,2.34185 -2.5,6 l 0.304687,4.19141 6.5,0.5 c 12.888791,0.99145 -0.372654,1.97678 -26.75,1.98828 l -25.25,0.0117 0.01563,2.25 c 0.02095,3.07831 1.045032,4.44209 4.253906,5.66211 4.389956,1.66907 3.205177,2.82226 -4.28125,4.16016 -20.141504,3.59946 -6.773521,12.362 22.195312,14.54882 8.616964,0.6505 8.834123,0.72828 6.486328,2.27735 -2.69345,1.77713 -8.649793,6.82661 -17.695312,15.0039 -5.035251,4.55198 -5.974609,5.92917 -5.97461,8.75 v 3.34766 h 15.548829 c 12.310312,0 16.196207,-0.33445 18.65039,-1.60351 4.376017,-2.26294 16.217465,-7.09576 23.300778,-9.50977 3.3,-1.12464 6.42672,-2.45818 6.94922,-2.96484 3.32312,-3.22235 3.81728,-1.14192 3.16016,13.32812 -2.6754,58.91309 -2.00183,62.32809 16.14648,81.79492 3.82255,4.10027 7.728,8.96734 8.67969,10.81641 0.95168,1.84906 4.83058,7.02406 8.61914,11.5 3.78855,4.47588 6.90052,8.61657 6.91602,9.20117 0.0155,0.5846 1.42004,2.3846 3.12109,4 7.77422,7.38276 9.27215,10.14938 7.50976,13.86328 -1.99847,4.21157 -2.06375,7.57422 -0.14843,7.57422 4.09425,0 7.05137,26.64218 3.94726,35.56055 -1.83471,5.2712 -1.88484,22.81442 -0.0703,24.6289 0.73213,0.73213 1.63581,3.55156 2.00781,6.26563 1.38657,10.11602 12.55545,15.87136 19.48438,10.04101 l 2.97656,-2.5039 1.10156,4.7539 c 2.48292,10.7137 0.63597,34.06857 -2.86523,36.23243 -0.74758,0.46203 -1.28403,5.90918 -1.54492,15.67968 -0.34993,13.1055 -0.7333,15.89675 -3.07227,22.38086 -6.49246,17.99872 -1.57562,36.23545 10.58203,39.25 6.75307,1.67447 8.30208,1.32282 11.67774,-2.6582 7.75785,-9.14907 12.2554,-25.20553 12.74414,-45.49219 0.20431,-8.48059 0.73402,-13.61584 1.44726,-14.05664 3.45915,-2.13788 2.24088,-36.08203 -1.29492,-36.08203 -4.76334,0 -4.04715,-8.26439 4.10938,-47.5 4.68914,-22.55659 5.76099,-66.32699 1.91015,-78 -3.86773,-11.72439 -2.9556,-27.6205 1.92383,-33.5 0.68467,-0.825 1.55401,-2.625 1.93164,-4 0.37762,-1.375 1.51994,-4.75 2.53906,-7.5 5.01084,-13.52118 9.39531,-30.48505 11.04688,-42.74609 0.49974,-3.71005 1.67652,-8.21005 2.61523,-10 0.93872,-1.78994 2.02369,-4.82891 2.41211,-6.75391 0.62613,-3.10301 0.72032,-3.18808 0.82227,-0.75 0.27107,6.48207 9.3088,1.72892 12.16211,-6.39648 0.70428,-2.00558 2.99827,-6.05563 5.09961,-9 2.10129,-2.94442 5.62274,-8.50352 7.82422,-12.35352 l 4.00195,-7 0.0137,-15.67187 0.0137,-15.67188 3.75,-1.20508 c 5.07906,-1.63068 7.25,-3.72859 7.25,-7.00586 0,-4.75361 -9.6041,-28.21276 -13.82422,-33.76758 -2.26455,-2.98077 -2.40504,-3.65891 -1.35156,-6.57226 2.08342,-5.76155 1.30653,-12.60547 -1.43164,-12.60547 -0.76615,0 -1.39258,-0.61929 -1.39258,-1.37695 0,-0.75765 -0.675,-1.93836 -1.5,-2.62305 -0.825,-0.68469 -1.5,-2.0904 -1.5,-3.12305 0,-1.38966 -0.72831,-1.87695 -2.80078,-1.87695 -3.96028,0 -5.19922,1.70205 -5.19922,7.14063 0,2.60749 -0.45,5.01945 -1,5.35937 -0.55,0.33992 -1,2.27081 -1,4.29102 v 3.67382 l -10.57031,-10.48242 c -5.81328,-5.76512 -11.75031,-12.50742 -13.19336,-14.98242 -1.44304,-2.475 -3.87761,-6.05379 -5.41016,-7.95312 -2.03193,-2.51836 -2.45351,-3.65949 -1.55664,-4.21485 0.82287,-0.50955 1.17756,-3.27813 1.07227,-8.36719 -0.14933,-7.21817 -0.0667,-7.52616 1.61328,-6.00585 6.93224,6.2736 15.37306,1.28567 9.54492,-5.64063 -1.90693,-2.26625 -2.5,-4.1096 -2.5,-7.77148 0,-2.95193 -0.5528,-5.2615 -1.43554,-5.99415 -0.78965,-0.6553 -1.72532,-2.50498 -2.07813,-4.11132 -0.44469,-2.02469 -1.69389,-3.42129 -4.07422,-4.55078 -3.30048,-1.5662 -4.01288,-2.85467 -4.63281,-8.39063 -0.24673,-2.20334 -0.75395,-2.5 -4.2793,-2.5 h -4 l 0.008,4.5 c 0.004,2.475 0.33008,5.9625 0.7246,7.75 0.53687,2.43243 0.37348,3.25 -0.65039,3.25 -1.52305,0 -2.58203,-2.12283 -2.58203,-5.17578 0,-1.21191 -0.84744,-2.23274 -2.13086,-2.56836 -2.73209,-0.71447 -2.11595,-10.78328 1.03321,-16.88086 1.10082,-2.1315 2.72983,-7.925 3.61914,-12.875 0.8893,-4.94995 1.92236,-10.24508 2.29687,-11.76758 l 0.68164,-2.76758 4.36133,2.3418 c 2.39927,1.28874 4.78522,3.09828 5.30078,4.01953 0.51556,0.92126 2.05816,1.67383 3.42774,1.67383 2.58629,0 9.84637,3.27834 10.84765,4.89844 0.3152,0.51 2.48179,1.23562 4.81641,1.61133 2.33462,0.37572 5.14609,1.24741 6.24609,1.9375 18.8293,11.81263 31.61228,13.83431 44.08985,6.97265 19.20722,-10.56239 19.78908,-10.69944 28.29492,-6.58984 7.7285,3.73403 11.71023,3.80338 14.69531,0.25586 1.42842,-1.69758 3.3152,-3.08594 4.19336,-3.08594 0.87816,0 2.52666,-0.82352 3.66211,-1.83008 1.13545,-1.00656 3.97695,-2.37354 6.31445,-3.03906 5.1084,-1.45443 6.09033,-6.54222 2.08594,-10.80469 -2.78429,-2.96369 -0.28909,-8.61337 4.91406,-11.12695 1.7875,-0.86351 3.25,-2.16164 3.25,-2.88477 0,-0.76626 1.1473,-1.31731 2.75,-1.32031 3.16164,-0.007 13.43743,-8.52368 15.80274,-13.09765 4.65846,-9.00857 0.79022,-14.89211 -9.80274,-14.90821 -3.98745,-0.006 -8.84516,-0.27308 -10.79492,-0.5957 -3.16991,-0.5245 -3.69058,-0.28648 -4.91992,2.25977 -1.2258,2.5389 -1.4235,2.63084 -1.82617,0.84765 -0.24839,-1.09999 -1.52189,-3.27148 -2.83008,-4.82617 -1.30819,-1.55468 -2.37891,-3.40575 -2.37891,-4.11328 0,-2.23632 -9.71913,-10.56055 -12.33008,-10.56055 -1.65746,0 -5.00706,2.49548 -10.68359,7.95508 -4.5485,4.3747 -8.94506,8.08722 -9.76953,8.25 -0.82447,0.16279 -2.0417,2.09493 -2.70508,4.29492 -0.66338,2.2 -2.6254,7.10014 -4.35937,10.88867 -1.73402,3.78857 -3.15235,7.69621 -3.15235,8.6836 0,1.20705 -0.88665,1.89857 -2.70703,2.11132 -1.82993,0.21386 -3.81726,1.77493 -6.13086,4.81641 -2.38548,3.13597 -4.60534,4.84937 -7.32031,5.65234 -2.14274,0.63376 -4.94227,1.8388 -6.22266,2.67774 -3.30865,2.16795 -18.61914,-8.46088 -18.61914,-12.92578 0,-1.48088 -6.66235,-7.53552 -12.00195,-10.90625 -2.24146,-1.41497 -4.48185,-3.63631 -4.97656,-4.9375 -0.49471,-1.30118 -1.31725,-2.62372 -1.82813,-2.93946 -0.51087,-0.31574 -1.96261,-3.84748 -3.22656,-7.84765 -3.71982,-11.7726 -10.95752,-17.93953 -12.35156,-10.52344 -2.03426,10.82192 -1.61501,10.22168 -7.36524,10.55274 -4.34958,0.25042 -5.25,0.62203 -5.25,2.16797 0,2.8925 -1.08178,5.02929 -2.54492,5.02929 -0.9645,0 -1.17235,-0.97255 -0.75586,-3.53906 0.65778,-4.05345 -1.76031,-7.41571 -6.85351,-9.52539 -2.07513,-0.85955 -2.6432,-1.53845 -1.90235,-2.2793 1.50074,-1.50073 1.30791,-6.85203 -0.33203,-9.19336 -3.51648,-5.02045 -2.94076,-27.64057 0.99219,-38.996089 2.72861,-7.87827 0.81348,-39.247589 -2.62305,-42.966797 -1.01639,-1.099995 -2.96762,-4.419284 -4.33594,-7.376953 -2.41211,-5.213984 -9.05354,-13.123047 -11.01953,-13.123047 -0.53257,0 -1.7453,-0.702758 -2.69531,-1.5625 -2.47659,-2.241269 -16.85147,-7.429294 -20.59766,-7.433594 -4.81936,-0.0055 -6.33203,-0.936729 -6.33203,-3.898438 0,-6.629712 -7.27132,-10.091391 -14.85156,-10.24414 z m 2.16992,4.46875 c 1.91697,0.177017 3.57499,0.83563 4.61914,2.09375 1.45375,1.751649 0.37046,8.576172 -1.36133,8.576172 -0.6608,0 -3.53453,1.125005 -6.38476,2.5 -8.58104,4.139627 -12.70084,2.413354 -11.52539,-4.830079 0.82037,-5.055346 8.90149,-8.870894 14.65234,-8.339843 z M 197.5293,134.0029 c 0.0976,-0.003 0.19358,-0.002 0.28516,0.002 1.46517,0.0635 3.81855,1.44912 3.83007,2.32813 0.0115,0.879 -2.0152,2.73356 -3.24023,3.52148 -1.22503,0.78793 -3.55333,1.69766 -4.88672,1.31836 -1.33339,-0.3793 -2.73431,-1.8878 -3.01367,-2.9668 -0.27936,-1.07899 0.89492,-2.06869 2.22265,-2.74414 1.24479,-0.63322 3.33843,-1.41596 4.80274,-1.45898 z m -104.238284,24.64258 0.0625,0.18554 c 0.588192,1.67555 1.678903,4.7845 0.59375,5.54297 -1.085153,0.75848 -4.88382,1.54879 -6.376953,0.96875 -1.493133,-0.58003 -1.731191,-3.39768 -1.191406,-4.50781 0.539782,-1.11013 4.344579,-1.75461 6.912109,-2.18945 z M 68.25,236.71579 c 2.365953,0 -0.171694,2.26797 -7,6.25781 -4.262475,2.49064 -10.633687,7.15483 -14.158203,10.36328 -3.524512,3.2085 -7.650046,7.54714 -9.167968,9.64258 -3.447659,4.75938 -3.612057,4.44853 -4.058594,-7.68554 C 33.502431,245.43529 33.515927,245.36817 36,244.6572 c 14.767074,-4.2265 29.852239,-7.94141 32.25,-7.94141 z m 47.03516,15.16602 c 0.65457,-0.0731 0.71484,0.53832 0.71484,1.77539 0,1.06754 0.45,2.21867 1,2.55859 0.55,0.33992 1,1.34373 1,2.23047 0,0.88673 0.68651,2.36997 1.52539,3.29687 2.04884,2.26394 0.36698,3.65103 -6.71875,5.53711 -5.75974,1.53319 -11.81187,1.88456 -11.79687,0.68555 0.0322,-2.57314 6.59577,-11.60714 9.99023,-13.75 2.38115,-1.50315 3.63059,-2.26084 4.28516,-2.33398 z m -59.984378,20.70703 c 0.100635,0.003 0.18183,0.12093 0.232422,0.39258 0.269821,1.44874 1.166409,6.16172 1.152687,8.24023 -0.0039,0.59214 -0.918878,1.00188 -0.900738,1.30469 0.08188,0.20746 0.15844,0.40098 0.220703,0.55664 l 0.04297,0.17383 -0.13086,0.043 c 0,-10e-6 -0.08718,-0.0133 -0.132812,-0.77344 -0.646973,-1.6392 -2.944057,-4.25959 -2.895143,-5.8608 0.04477,-1.46563 1.974682,-4.0878 2.410768,-4.0767 z m 17.103515,6.03906 c 0.01089,-0.002 0.418688,-0.0434 0.427738,-0.037 0.289548,0.20005 1.129062,4.75453 0.641171,6.02201 -0.487889,1.26746 -2.67921,0.36958 -2.637265,-0.92823 0.04063,-1.25728 1.230868,-5.00552 1.568359,-5.05664 z m 53.927733,3.01367 c 1.05046,0.20887 1.33523,1.04108 1.49219,2.41211 0.39329,3.43537 -1.55801,5.82077 -8.32422,10.16797 -7.7242,4.96273 -10.80786,5.00305 -15.14258,0.20508 l -3.57031,-3.95117 10.96485,-4.29297 c 8.95243,-3.50502 12.82935,-4.88914 14.58007,-4.54102 z m -56.203123,13.17578 c 0,0 0.174905,0.0868 0.783203,0.60743 0.608298,0.52058 2.985716,0.76104 3.853536,2.04926 0.07331,0.10882 0.666409,1.44607 0.735585,1.57466 0.749699,1.39365 0.172554,3.87984 -0.534434,2.88779 -0.772218,-1.08358 -3.060816,-4.48185 -3.949218,-5.80078 -0.888403,-1.31893 -0.888672,-1.31836 -0.888672,-1.31836 z m 191.611333,52.10938 c 1.27879,0.35581 2.81374,1.95427 5.11914,5.03906 2.15794,2.8875 5.7738,7.02901 8.0332,9.20313 4.23073,4.07099 4.99202,6.26188 2.90625,8.34765 -4.13921,4.13921 -22.59434,-16.72756 -18.81836,-21.27734 0.52826,-0.63651 1.02932,-1.06529 1.54688,-1.26367 0.38816,-0.14879 0.78662,-0.16744 1.21289,-0.0488 z m -84.50196,89.09961 c 0.15036,-0.14519 0.40653,0.19214 0.8418,0.93945 1.28712,2.20988 5.69528,2.26289 8.08789,0.0977 1.76587,-1.59808 1.80432,0.0919 1.18945,51.75 -0.63772,53.5823 -0.74682,56.57042 -1.86718,51.27148 -2.08905,-9.88049 -2.94974,-12.6241 -6.08008,-19.36914 -1.91439,-4.125 -4.13958,-8.77301 -4.94531,-10.33008 C 173.65912,508.82868 173,506.65951 173,505.56739 c 0,-1.09213 -1.125,-3.459 -2.5,-5.26172 -1.375,-1.80267 -2.5,-3.73655 -2.5,-4.29687 0,-0.56032 -2.23813,-3.11209 -4.97265,-5.66992 l -4.97071,-4.65039 1.9043,-3.23633 c 4.09976,-6.96549 7.85853,-15.72547 11.47461,-26.73633 2.07718,-6.32495 4.17855,-12.28129 4.66992,-13.23633 0.49137,-0.95504 0.90713,-2.98004 0.92383,-4.5 0.013,-1.18015 0.0586,-1.80794 0.20898,-1.95312 z" /></svg>
