<svg width="48" height="48" fill="none" xmlns="http://www.w3.org/2000/svg"><path d="M40 0H8a8 8 0 0 0-8 8v32a8 8 0 0 0 8 8h32a8 8 0 0 0 8-8V8a8 8 0 0 0-8-8Z" fill="#000"/><path fill-rule="evenodd" clip-rule="evenodd" d="M13.78 18.202v15.083c0 1.102.837 1.934 1.924 1.934h17.619c1.087 0 1.923-.832 1.923-1.934v-12.65h2.78v12.65c0 2.629-2.072 4.715-4.703 4.715h-17.62C13.074 38 11 35.913 11 33.285V18.202h2.78Z" fill="#fff"/><path fill-rule="evenodd" clip-rule="evenodd" d="M11 14.715C11 12.086 13.073 10 15.704 10h18.201v5.514h.307c2.146 0 3.815 1.681 3.815 3.823v1.865c0 2.142-1.669 3.823-3.815 3.823H15.704C13.073 25.025 11 22.94 11 20.31v-5.595Zm20.125.8V12.78H15.704c-1.087 0-1.924.833-1.924 1.935v5.595c0 1.102.837 1.935 1.924 1.935h7.42v-6.73h8Zm-5.221 6.73h8.308c.602 0 1.034-.428 1.034-1.043v-1.865c0-.615-.432-1.042-1.034-1.042h-8.308v3.95Z" fill="#fff"/><path fill="url(#a)" d="M22.697 18.541h3.707v3.707h-3.707z"/><path fill="url(#b)" d="M30.171 12.276h4.041v3.244h-4.041z"/><defs><linearGradient id="a" x1="24.55" y1="24.72" x2="24.55" y2="19.777" gradientUnits="userSpaceOnUse"><stop/><stop offset="1" stop-opacity="0"/></linearGradient><linearGradient id="b" x1="32.191" y1="17.682" x2="32.191" y2="13.357" gradientUnits="userSpaceOnUse"><stop/><stop offset="1" stop-opacity="0"/></linearGradient></defs></svg>