<?xml version="1.0" encoding="UTF-8" standalone="no"?>
<!-- Generator: Blender, SVG Export for Grease Pencil - v1.0 -->

<svg
   version="1.0"
   x="0px"
   y="0px"
   width="125.26228"
   height="227.48384"
   viewBox="0 0 125.26228 227.48384"
   id="svg31036"
   xmlns:xlink="http://www.w3.org/1999/xlink"
   xmlns="http://www.w3.org/2000/svg"
   xmlns:svg="http://www.w3.org/2000/svg">
  <defs
     id="defs31040">
    <linearGradient
       id="linearGradient33490">
      <stop
         style="stop-color:#0bab8b;stop-opacity:1;"
         offset="0"
         id="stop33486" />
      <stop
         style="stop-color:#8bc34a;stop-opacity:1;"
         offset="0.34726694"
         id="stop33488" />
      <stop
         style="stop-color:#fffa51;stop-opacity:1;"
         offset="1"
         id="stop34961" />
    </linearGradient>
    <linearGradient
       xlink:href="#linearGradient33490"
       id="linearGradient33492"
       x1="884.4118"
       y1="320.80478"
       x2="1008.7084"
       y2="94.252754"
       gradientUnits="userSpaceOnUse" />
    <linearGradient
       xlink:href="#linearGradient33490"
       id="linearGradient8846"
       gradientUnits="userSpaceOnUse"
       x1="884.4118"
       y1="320.80478"
       x2="1008.7084"
       y2="94.252754" />
    <linearGradient
       xlink:href="#linearGradient33490"
       id="linearGradient8848"
       gradientUnits="userSpaceOnUse"
       x1="884.4118"
       y1="320.80478"
       x2="1008.7084"
       y2="94.252754" />
    <linearGradient
       xlink:href="#linearGradient33490"
       id="linearGradient8850"
       gradientUnits="userSpaceOnUse"
       x1="884.4118"
       y1="320.80478"
       x2="1008.7084"
       y2="94.252754" />
    <linearGradient
       xlink:href="#linearGradient33490"
       id="linearGradient8852"
       gradientUnits="userSpaceOnUse"
       x1="884.4118"
       y1="320.80478"
       x2="1008.7084"
       y2="94.252754" />
    <linearGradient
       xlink:href="#linearGradient33490"
       id="linearGradient8854"
       gradientUnits="userSpaceOnUse"
       x1="884.4118"
       y1="320.80478"
       x2="1008.7084"
       y2="94.252754" />
    <linearGradient
       xlink:href="#linearGradient33490"
       id="linearGradient8856"
       gradientUnits="userSpaceOnUse"
       x1="884.4118"
       y1="320.80478"
       x2="1008.7084"
       y2="94.252754" />
  </defs>
  <g
     id="blender_frame_1"
     transform="translate(-883.77942,-93.654175)"
     style="fill-opacity:1;stroke:url(#linearGradient33492);stroke-width:6;stroke-linecap:round;stroke-linejoin:miter;stroke-dasharray:none;stroke-opacity:1">
    <g
       id="blender_object_Stroke.001"
       style="fill-opacity:1;stroke:url(#linearGradient8856);stroke-width:6;stroke-linecap:round;stroke-linejoin:miter;stroke-dasharray:none;stroke-opacity:1">
      <!--Layer: Lines-->
      <g
         id="Lines"
         style="fill-opacity:1;stroke:url(#linearGradient8854);stroke-width:6;stroke-linecap:round;stroke-linejoin:miter;stroke-dasharray:none;stroke-opacity:1">
        <path
           id="polyline31021"
           style="fill:none;fill-opacity:1;stroke:url(#linearGradient8846);stroke-width:6;stroke-linecap:round;stroke-linejoin:miter;stroke-dasharray:none;stroke-opacity:1"
           d="M 886.77942,96.654175 V 107.3178 l 0.0889,19.51493 v 6.87723 20.81673 15.66411 l 0.13873,18.25744 v 3.64538 6.0479" />
        <path
           id="polyline31023"
           style="fill:none;fill-opacity:1;stroke:url(#linearGradient8848);stroke-width:6;stroke-linecap:round;stroke-linejoin:miter;stroke-dasharray:none;stroke-opacity:1"
           d="m 887.11188,217.93793 c 0,0 0,5.14593 0,7.7189 0,5.2543 -0.0748,10.50913 0,15.76289 0.029,2.03493 0.10838,4.06884 0.17377,6.10292 0.0474,1.47337 0.0883,2.94709 0.15832,4.41956 0.0605,1.27175 0.13771,2.54276 0.22626,3.81287 0.085,1.21967 0.1805,2.43873 0.2929,3.65618 0.12302,1.3324 0.26051,2.66361 0.41749,3.99244 0.18017,1.52511 0.38049,3.04799 0.60174,4.56769 0.21009,1.44309 0.43543,2.88423 0.68903,4.32031 0.23708,1.34255 0.49504,2.68165 0.77813,4.01526 0.27863,1.3126 0.57698,2.62138 0.90564,3.92236 0.30013,1.18803 0.62203,2.37096 0.97339,3.54486 0.29422,0.98299 0.60884,1.96026 0.94977,2.92804 0.36102,1.0248 0.74915,2.04034 1.15973,3.04632 0.39838,0.9761 0.81803,1.94397 1.26434,2.89911 0.46482,0.99476 0.95471,1.97827 1.47119,2.94721 0.4997,0.93746 1.01859,1.86557 1.57373,2.7713 0.60641,0.98939 1.24629,1.95903 1.91736,2.90576 0.56352,0.795 1.15029,1.57457 1.76917,2.32727 0.64264,0.7816 1.31698,1.53791 2.01593,2.26959 0.63118,0.66074 1.28758,1.29808 1.96411,1.9123 0.70289,0.63815 1.42841,1.25225 2.17413,1.83978 0.76958,0.60633 1.56047,1.18668 2.37097,1.73712 0.83158,0.56475 1.68256,1.10241 2.55365,1.60407 0.89566,0.5158 1.8114,0.99838 2.74433,1.44323 0.86147,0.41077 1.74048,0.78609 2.63073,1.13007 0.92585,0.35773 1.86516,0.68282 2.81537,0.96966 0.98352,0.29689 1.97916,0.55633 2.98267,0.77637 0.9855,0.21609 1.98008,0.39453 2.97943,0.53314 0.93099,0.12913 1.86749,0.22687 2.80603,0.27753 0.93321,0.0504 1.86963,0.0598 2.80359,0.026 0.89412,-0.0324 1.78759,-0.10637 2.67517,-0.21905 0.85563,-0.10863 1.7068,-0.25766 2.54981,-0.43995 0.9128,-0.19738 1.81648,-0.43873 2.71106,-0.70684 1.00217,-0.30035 1.99214,-0.64242 2.97198,-1.0091 1.11441,-0.41704 2.21593,-0.8699 3.30316,-1.35339 1.05325,-0.46837 2.09444,-0.96553 3.11682,-1.49792 0.94809,-0.4937 1.88303,-1.01446 2.79529,-1.5716 0.85299,-0.52094 1.68812,-1.07245 2.50092,-1.65411 0.812,-0.58109 1.60273,-1.19297 2.37024,-1.83167 0.79941,-0.66524 1.5727,-1.36252 2.32458,-2.08105 0.71758,-0.68575 1.41228,-1.39609 2.08466,-2.12622 0.68264,-0.74128 1.34441,-1.50267 1.97735,-2.28681 0.65608,-0.81281 1.28186,-1.65053 1.88458,-2.50366 0.59894,-0.84779 1.16841,-1.71663 1.71924,-2.59644 0.51309,-0.81952 1.0042,-1.65309 1.47608,-2.49701 0.5516,-0.9865 1.08049,-1.98612 1.58319,-2.99841 0.49529,-0.99737 0.96154,-2.00928 1.41095,-3.02814 0.43832,-0.99374 0.85555,-1.997 1.25323,-3.00769 0.40452,-1.02809 0.78616,-2.06532 1.15186,-3.10785 0.41188,-1.17416 0.80878,-2.35401 1.17358,-3.54363 0.36913,-1.20373 0.7051,-2.41767 1.02674,-3.63495 0.26991,-1.02153 0.52089,-2.04816 0.75763,-3.07788 0.26176,-1.13857 0.5049,-2.28152 0.73266,-3.42737 0.2716,-1.36641 0.59153,-2.72711 0.75574,-4.11054 0.70586,-5.94662 0.81499,-11.9523 0.97806,-17.93844 0.18875,-6.92884 0,-13.86281 0,-20.79422 0,-2.37872 0,-2.53245 0,-7.13617" />
        <path
           id="polyline31025"
           style="fill:none;fill-opacity:1;stroke:url(#linearGradient8850);stroke-width:6;stroke-linecap:round;stroke-linejoin:miter;stroke-dasharray:none;stroke-opacity:1"
           d="m 896.75958,96.925246 c 0,0 2.25929,-0.0057 3.38892,0 0.64865,0.0033 1.29849,-0.02079 1.94588,0.01973 0.75716,0.04739 1.46675,0.02573 2.22144,0.103012 0.87011,0.0891 1.7822,0.07597 2.65302,0.157881 1.64311,0.15456 3.28385,0.330761 4.92716,0.483204 1.82039,0.16887 3.64835,0.497927 5.46405,0.711371 1.75424,0.206219 3.5025,0.468809 5.24151,0.778259 1.58275,0.281645 3.15754,0.61108 4.72205,0.980837 1.59844,0.37778 3.18934,0.79204 4.76263,1.26373 1.46179,0.43826 2.91214,0.91858 4.34119,1.45404 1.30496,0.48897 2.5944,1.02229 3.86066,1.6042 1.34309,0.61721 2.66639,1.28069 3.95813,1.9992 1.15276,0.64119 2.28525,1.32237 3.37878,2.06005 0.97086,0.65493 1.91579,1.35135 2.81927,2.09651 0.87708,0.72337 1.70918,1.50148 2.51893,2.29949 0.43353,0.42725 0.84599,0.87583 1.25067,1.3305 0.39953,0.44888 0.78666,0.90907 1.16156,1.37874 0.3694,0.46276 0.72686,0.93533 1.0711,1.4171 0.34053,0.47657 0.67443,0.95867 0.98291,1.4566 0.55823,0.90106 1.08583,1.82247 1.56812,2.76636 0.26037,0.50957 0.49314,1.03327 0.71417,1.5611 0.25566,0.61051 0.49249,1.22935 0.70709,1.85547 0.21295,0.62129 0.40165,1.25106 0.57532,1.88446 0.17212,0.62776 0.32638,1.26071 0.4621,1.89734 0.13378,0.62754 0.25029,1.25909 0.34686,1.89343 0.10911,0.71674 0.19787,1.43699 0.26245,2.15912 0.0558,0.62364 0.0905,1.2494 0.10779,1.8753 0.0171,0.62026 0.0175,1.24138 -0.004,1.86151 -0.0214,0.61708 -0.0638,1.23369 -0.12439,1.84815 -0.0518,0.52506 -0.12154,1.04852 -0.20447,1.56959 -0.0968,0.60829 -0.20996,1.21429 -0.34198,1.81592 -0.13255,0.60401 -0.28474,1.20391 -0.4516,1.79937 -0.16878,0.6023 -0.35446,1.20009 -0.55548,1.79242 -0.23268,0.68562 -0.48342,1.36541 -0.75262,2.03754 -0.2385,0.59547 -0.49374,1.18446 -0.76367,1.76636 -0.2742,0.5911 -0.55996,1.17738 -0.8689,1.7511 -0.58901,1.09382 -1.2108,2.17114 -1.87549,3.2207 -0.73583,1.16188 -1.52177,2.29248 -2.33569,3.40106 -0.8302,1.13074 -1.69945,2.23337 -2.59631,3.312 -0.97802,1.17625 -1.99503,2.32043 -3.03443,3.44282 -0.91948,0.99288 -1.87262,1.95437 -2.83087,2.90991 -1.03943,1.03647 -2.0958,2.05612 -3.16516,3.06171 -4.22971,3.97742 -8.61131,7.79086 -12.85632,11.75195 -1.57689,1.47141 -3.1445,2.95321 -4.68512,4.46259 -1.02277,1.00201 -2.0304,2.01963 -3.0257,3.04894 -0.7232,0.74792 -1.43924,1.50303 -2.14032,2.27173 -0.68241,0.74822 -1.35801,1.50317 -2.01062,2.27754 -0.57982,0.68798 -1.14828,1.3862 -1.69165,2.10333 -0.57293,0.75613 -1.12955,1.52559 -1.65247,2.31713 -0.50297,0.76134 -0.98609,1.53722 -1.42645,2.33642 -0.42589,0.77294 -0.82672,1.56173 -1.17322,2.37335 -0.28087,0.65789 -0.52997,1.33113 -0.73162,2.01746 -0.19745,0.67204 -0.36165,1.35638 -0.46601,2.04901 -0.10957,0.7272 -0.15756,1.4646 -0.16636,2.19996 -0.007,0.6125 0.0246,1.22668 0.0947,1.8352 0.0766,0.66492 0.19898,1.32546 0.3554,1.97625 0.16563,0.68911 0.37552,1.36833 0.61579,2.0351 0.2865,0.79505 0.62096,1.57332 0.98242,2.33722 0.39046,0.8252 0.82233,1.63128 1.27924,2.42163 0.44414,0.76826 0.92413,1.51593 1.41943,2.25226 0.58988,0.87694 1.21129,1.73281 1.84723,2.57696 0.74223,0.98525 1.51356,1.94859 2.29614,2.9021 0.97511,1.18809 1.97574,2.35531 2.98871,3.51129 0.97832,1.11643 1.97391,2.21787 2.98285,3.30671 1.65691,1.78811 3.34448,3.54779 5.04205,5.29736 1.6441,1.69446 3.30851,3.36923 4.9809,5.03578 10.34487,10.30876 20.87932,20.42576 31.25726,30.70122 3.78021,3.74289 7.55006,7.49635 11.29547,11.27405 4.13998,4.17568 8.26009,8.3712 12.35413,12.59192 5.3675,5.53359 16.00756,16.69232 16.00756,16.69232" />
        <path
           id="polyline31031"
           style="fill:none;fill-opacity:1;stroke:url(#linearGradient8852);stroke-width:6;stroke-linecap:round;stroke-linejoin:miter;stroke-dasharray:none;stroke-opacity:1"
           d="m 908.60059,187.19775 v -4.182 l -0.14356,-10.21074 v -18.72212 -5.54694 -10.10717 -7.02735 -6.82062 -17.0758" />
      </g>
    </g>
  </g>
</svg>
