<?xml version="1.0" encoding="UTF-8" standalone="no"?>
<!-- Generator: Blender, SVG Export for Grease Pencil - v1.0 -->

<svg
   version="1.0"
   x="0px"
   y="0px"
   width="400"
   height="220.00002"
   viewBox="0 0 400 220.00002"
   id="svg31036"
   xmlns:xlink="http://www.w3.org/1999/xlink"
   xmlns="http://www.w3.org/2000/svg"
   xmlns:svg="http://www.w3.org/2000/svg">
  <defs
     id="defs31040">
    <linearGradient
       xlink:href="#linearGradient11459"
       id="linearGradient11461"
       x1="1031.8662"
       y1="204.18036"
       x2="1239.5669"
       y2="89.673637"
       gradientUnits="userSpaceOnUse" />
    <linearGradient
       id="linearGradient11459">
      <stop
         style="stop-color:#0bab8b;stop-opacity:1;"
         offset="0"
         id="stop11455" />
      <stop
         style="stop-color:#8bc34a;stop-opacity:1;"
         offset="0.39722222"
         id="stop13641" />
      <stop
         style="stop-color:#fffa51;stop-opacity:1;"
         offset="1"
         id="stop11457" />
    </linearGradient>
    <linearGradient
       xlink:href="#linearGradient11459"
       id="linearGradient19441"
       gradientUnits="userSpaceOnUse"
       x1="1031.8662"
       y1="204.18036"
       x2="1239.5669"
       y2="89.673637" />
    <linearGradient
       xlink:href="#linearGradient11459"
       id="linearGradient19443"
       gradientUnits="userSpaceOnUse"
       x1="1031.8662"
       y1="204.18036"
       x2="1239.5669"
       y2="89.673637" />
    <linearGradient
       xlink:href="#linearGradient11459"
       id="linearGradient19445"
       gradientUnits="userSpaceOnUse"
       x1="1031.8662"
       y1="204.18036"
       x2="1239.5669"
       y2="89.673637" />
    <linearGradient
       xlink:href="#linearGradient11459"
       id="linearGradient19447"
       gradientUnits="userSpaceOnUse"
       x1="1031.8662"
       y1="204.18036"
       x2="1239.5669"
       y2="89.673637" />
    <linearGradient
       xlink:href="#linearGradient11459"
       id="linearGradient19449"
       gradientUnits="userSpaceOnUse"
       x1="1031.8662"
       y1="204.18036"
       x2="1239.5669"
       y2="89.673637" />
    <linearGradient
       xlink:href="#linearGradient11459"
       id="linearGradient19451"
       gradientUnits="userSpaceOnUse"
       x1="1031.8662"
       y1="204.18036"
       x2="1239.5669"
       y2="89.673637" />
    <linearGradient
       xlink:href="#linearGradient11459"
       id="linearGradient19453"
       gradientUnits="userSpaceOnUse"
       x1="1031.8662"
       y1="204.18036"
       x2="1239.5669"
       y2="89.673637" />
  </defs>
  <g
     aria-label="FIGURES"
     transform="matrix(0.91572786,0,0,1.0920275,-261.00134,-17.358179)"
     id="text2449"
     style="font-size:100px;line-height:1.85;font-family:LORENZA;-inkscape-font-specification:LORENZA;letter-spacing:5px;fill:#ffffff;fill-opacity:1;stroke-width:10">
    <path
       d="m 293.56601,139.43816 v 71.97265 h 6.25 v -30.61523 h 36.52344 v -6.25 h -36.52344 v -28.8086 h 45.11719 v -6.29882 z"
       id="path272"
       style="fill:#ffffff;fill-opacity:1" />
    <path
       d="m 365.02109,211.41081 v -71.97265 h -6.25 v 71.97265 z"
       id="path274"
       style="fill:#ffffff;fill-opacity:1" />
    <path
       d="m 389.64999,148.47136 c -6.73828,6.25 -10.9375,15.67383 -10.9375,26.95312 0,11.2793 4.19922,20.70313 10.9375,26.95313 6.68946,6.25 16.01563,9.61914 25.87891,9.61914 10.15625,0 18.35938,-4.10156 25.3418,-9.47266 l -0.53711,-0.53711 v -27.4414 h -30.0293 v 6.25 h 23.73047 v 18.84765 c -4.6875,3.32032 -10.79102,6.00586 -18.50586,6.00586 -8.54492,0 -16.01562,-2.7832 -21.5332,-7.95898 -5.51758,-5.12695 -8.88672,-12.45117 -8.88672,-22.26563 0,-9.81445 3.36914,-17.13867 8.88672,-22.26562 5.51758,-5.17578 12.98828,-7.95899 21.5332,-7.95899 7.91016,0 13.28125,1.51368 20.01953,5.46875 l 3.22266,-5.5664 c -7.51953,-4.3457 -14.45313,-6.25 -23.24219,-6.25 -9.86328,0 -19.18945,3.36914 -25.87891,9.61914 z"
       id="path276"
       style="fill:#ffffff;fill-opacity:1" />
    <path
       d="m 453.92734,139.43816 v 44.09179 c 0,9.22852 3.41797,16.65039 9.0332,21.38672 5.61524,4.73633 13.37891,6.98242 21.82617,6.98242 8.39844,0 16.16211,-2.24609 21.77735,-6.98242 5.61523,-4.73633 9.0332,-12.1582 9.0332,-21.38672 v -44.09179 h -6.29883 v 44.09179 c 0,7.8125 -2.49023,12.98828 -6.78711,16.60157 -4.29687,3.6621 -10.35156,5.51757 -17.72461,5.51757 -7.42187,0 -13.47656,-1.85547 -17.77343,-5.51757 -4.29688,-3.61329 -6.78711,-8.78907 -6.78711,-16.60157 v -44.09179 z"
       id="path278"
       style="fill:#ffffff;fill-opacity:1" />
    <path
       d="m 529.77695,139.43816 v 71.97265 h 6.25 v -30.41992 h 22.70508 l 19.92187,30.41992 h 7.51953 l -20.21484,-30.9082 c 8.6914,-1.12305 18.35937,-7.4707 18.35937,-20.26367 0,-14.64844 -11.08398,-20.80078 -24.46289,-20.80078 z m 6.25,6.29882 h 23.82812 c 9.76563,0 17.96875,4.00391 17.96875,14.50196 0,10.49804 -8.20312,14.50195 -17.96875,14.50195 h -23.82812 z"
       id="path280"
       style="fill:#ffffff;fill-opacity:1" />
    <path
       d="m 599.71835,139.43816 v 71.97265 h 51.36719 v -6.29883 h -45.11719 v -26.5625 h 36.52344 v -6.25 h -36.52344 v -26.5625 h 44.28711 v -6.29882 z"
       id="path282"
       style="fill:#ffffff;fill-opacity:1" />
    <path
       d="m 673.46835,143.29558 c -4.44336,2.88086 -7.56836,7.56836 -7.56836,12.84179 0,4.78516 2.09961,8.98438 5.51758,12.06055 3.32031,3.07617 7.95899,5.46875 13.52539,7.8125 l 9.375,3.90625 c 4.6875,1.95313 8.39844,4.10156 10.9375,6.49414 2.44141,2.39258 3.56446,4.58985 3.56446,7.51953 0,3.51563 -1.31836,6.00586 -4.29688,8.05664 -3.02734,2.14844 -7.66601,3.51563 -13.91601,3.51563 -12.64649,0 -19.82422,-6.25 -22.26563,-8.98438 l -4.78516,4.39454 c 3.32032,3.6621 12.15821,11.08398 27.05079,11.08398 7.17773,0 13.33007,-1.61133 17.67578,-4.6875 4.3457,-3.07617 7.03125,-8.00781 7.03125,-13.37891 0,-4.73632 -2.2461,-8.98437 -5.56641,-12.1582 -3.32031,-3.17383 -7.8125,-5.71289 -12.93945,-7.86133 l -9.42383,-3.90625 c -5.22461,-2.19726 -9.13086,-4.29687 -11.62109,-6.59179 -2.39258,-2.19727 -3.36915,-4.1504 -3.36915,-7.2754 0,-3.02734 1.46485,-5.37109 4.58985,-7.42187 3.22265,-2.14844 7.86133,-3.41797 13.47656,-3.41797 7.56836,0 14.11133,3.125 18.26172,8.44727 l 5.12695,-4.00391 c -5.46875,-6.98242 -14.11133,-10.9375 -23.38867,-10.9375 -6.5918,0 -12.59766,1.5625 -16.99219,4.49219 z"
       id="path284"
       style="fill:#ffffff;fill-opacity:1" />
  </g>
  <g
     id="blender_object_Stroke.002"
     style="stroke:url(#linearGradient11461)"
     transform="translate(-1031.8662,-89.673637)">
    <!--Layer: Lines-->
    <g
       id="Lines-8"
       style="stroke:url(#linearGradient19453)">
      <path
         id="polyline2"
         style="fill:none;stroke:url(#linearGradient19441);stroke-width:6.44458;stroke-linecap:round"
         d="m 1051.8009,106.93463 v 2.8609 13.54199 22.07111 17.21187 4.42308" />
      <path
         id="polyline4"
         style="fill:none;stroke:url(#linearGradient19443);stroke-width:6.44446;stroke-linecap:round"
         d="m 1035.0884,97.854066 c 0,0 4.1373,-0.58719 6.151,-0.68982 1.7313,-0.08824 3.466,-0.113161 5.1996,-0.11023 0.8627,0.0015 1.7253,0.02658 2.5872,0.0636 0.9258,0.03976 1.851,0.09634 2.7747,0.170227 0.8568,0.06853 1.7124,0.152694 2.566,0.253235 0.7635,0.08993 1.5254,0.194685 2.2851,0.312988 0.9109,0.141861 1.8195,0.299797 2.7245,0.475708 0.7899,0.15354 1.5767,0.323329 2.3604,0.505859 0.7912,0.184277 1.5794,0.381864 2.3634,0.594788 0.7897,0.214474 1.5766,0.440162 2.3566,0.687499 0.7822,0.24803 1.5586,0.51474 2.3286,0.79834 0.6419,0.23643 1.2785,0.48788 1.9092,0.75268 0.6314,0.26508 1.2584,0.54152 1.8763,0.83661 0.7393,0.35303 1.4701,0.72464 2.1895,1.11658 0.5958,0.32461 1.1824,0.66667 1.7603,1.02216 0.5747,0.35348 1.1409,0.72103 1.6965,1.10382 0.553,0.381 1.0965,0.77616 1.628,1.18652 0.6333,0.48893 1.2542,0.99453 1.8586,1.51874 0.4992,0.43292 0.9865,0.87999 1.4587,1.34216 0.559,0.54709 1.1014,1.11166 1.6255,1.6922 0.4322,0.47874 0.8488,0.97191 1.2517,1.47559 0.4003,0.50039 0.7867,1.01218 1.157,1.53515 0.3685,0.52051 0.7217,1.05226 1.0586,1.59375 0.3363,0.54047 0.6579,1.09055 0.9604,1.65064 0.3627,0.6715 0.7055,1.35428 1.0237,2.04797 0.2643,0.57626 0.5083,1.16215 0.7347,1.75434 0.2258,0.59065 0.4339,1.18846 0.6214,1.79235 0.1868,0.60164 0.3554,1.2094 0.5012,1.82227 0.1747,0.73435 0.3228,1.47543 0.4471,2.21997 0.1037,0.62079 0.1901,1.24505 0.2488,1.8717 0.094,1.00703 0.1595,2.01838 0.1653,3.02979 0.01,1.1435 -0.04,2.2889 -0.1475,3.42737 -0.1091,1.15699 -0.281,2.3092 -0.5037,3.44977 -0.2267,1.16068 -0.5138,2.31049 -0.8459,3.44549 -0.3387,1.15753 -0.7324,2.29983 -1.1677,3.42462 -0.4435,1.14601 -0.9374,2.27327 -1.4689,3.38117 -0.5422,1.13005 -1.1321,2.23772 -1.7525,3.32678 -0.7035,1.23489 -1.4575,2.44107 -2.2315,3.63306 -0.5524,0.8507 -1.1302,1.68491 -1.7205,2.50976 -0.6885,0.9621 -1.3981,1.90924 -2.1232,2.84406 -0.649,0.8367 -1.3156,1.65982 -1.9928,2.47381 -0.8,0.96159 -1.6176,1.90865 -2.4454,2.84644 -1.6443,1.86282 -3.3268,3.6917 -5.0074,5.52179 -4.9378,5.37681 -9.9906,10.6474 -14.9142,16.03717 -3.7321,4.08547 -11.0868,12.35559 -11.0868,12.35559" />
      <path
         id="polyline6"
         style="fill:none;stroke:url(#linearGradient19445);stroke-width:6.44446;stroke-linecap:round"
         d="m 1115.544,96.362546 v 11.851934 24.06677 8.71173 1.52064" />
      <path
         id="polyline8"
         style="fill:none;stroke:url(#linearGradient19447);stroke-width:6.44434;stroke-linecap:round"
         d="m 1127.7803,96.142759 c 0,0 1.0167,0.03444 1.5071,0 0.617,-0.04332 1.2383,-0.02279 1.8555,0.0174 0.6873,0.04475 1.3735,0.125736 2.0512,0.248718 0.6802,0.123448 1.3548,0.285932 2.0154,0.489746 0.6108,0.188451 1.2093,0.418932 1.7947,0.675781 0.6049,0.265398 1.195,0.565914 1.7695,0.891846 0.631,0.35799 1.2459,0.74636 1.8379,1.16577 0.5489,0.38891 1.0794,0.80553 1.5849,1.2494 0.504,0.44251 0.9833,0.91408 1.4394,1.40576 0.4537,0.48904 0.8835,1.00125 1.287,1.53247 0.4304,0.56664 0.8312,1.15648 1.2064,1.76111 0.3683,0.59356 0.7118,1.20356 1.0232,1.82885 0.3281,0.65873 0.6215,1.33529 0.8882,2.02118 0.2762,0.71031 0.525,1.43232 0.7357,2.16474 0.2045,0.71081 0.378,1.43167 0.5114,2.15918 0.1155,0.6298 0.1953,1.26665 0.2495,1.90466 0.05,0.59065 0.072,1.18419 0.07,1.77698 0,0.55008 -0.028,1.10043 -0.075,1.64856 -0.05,0.59608 -0.1276,1.19013 -0.2215,1.78094 -0.1081,0.6801 -0.2399,1.35682 -0.3934,2.02814 -0.1311,0.57325 -0.2819,1.14228 -0.4502,1.70575 -0.2023,0.67746 -0.4245,1.3495 -0.6719,2.01184 -0.2263,0.60591 -0.4743,1.20414 -0.7424,1.79277 -0.2464,0.54096 -0.5064,1.07658 -0.795,1.59621 -0.4335,0.78049 -0.8975,1.54578 -1.4045,2.28069 -0.5692,0.82515 -1.1953,1.61077 -1.8339,2.38348 -0.6022,0.72868 -1.2429,1.42499 -1.8817,2.12177 -1.5249,1.66318 -3.1509,3.23256 -4.6566,4.91314 -0.7053,0.78729 -1.4045,1.58242 -2.049,2.42023 -0.5161,0.67095 -1.0225,1.35395 -1.4525,2.08307 -0.3733,0.63289 -0.6989,1.29626 -0.9724,1.97821 -0.16,0.39891 -0.2818,0.81313 -0.3884,1.22949 -0.1076,0.42025 -0.1938,0.84686 -0.2524,1.27667 -0.054,0.39617 -0.081,0.79635 -0.091,1.19605 -0.011,0.41724 8e-4,0.83542 0.03,1.25177 0.031,0.43555 0.085,0.86956 0.1518,1.30102 0.077,0.50041 0.1705,0.99906 0.2889,1.4914 0.2773,1.15301 0.6093,2.29379 0.9853,3.41846 0.4165,1.24576 0.8887,2.47384 1.4055,3.68145 0.5294,1.23725 1.1117,2.45272 1.7342,3.64588 0.6569,1.25918 1.3639,2.49303 2.1086,3.70233 0.756,1.22765 1.5664,2.42177 2.3929,3.60309 0.6323,0.90373 1.2933,1.78734 1.9621,2.66436 0.7482,0.98108 1.5152,1.94793 2.2936,2.90516 4.3006,5.28829 8.8311,10.38684 13.1296,15.67675 1.9317,2.37726 5.3964,5.7331 5.3964,5.7331" />
      <path
         id="polyline10"
         style="fill:none;stroke:url(#linearGradient19449);stroke-width:6.44434;stroke-linecap:round"
         d="m 1183.1489,92.895928 v 10.570992 3.9828 22.01257 l -0.3569,31.64074" />
      <path
         id="polyline12"
         style="fill:none;stroke:url(#linearGradient19451);stroke-width:6.44458;stroke-linecap:round"
         d="m 1182.8004,181.20289 c 0,0 0.2337,2.18158 0.3412,2.7047 0.1102,0.53654 0.1992,1.21437 0.3641,1.73672 0.189,0.59897 0.4132,1.18729 0.6593,1.76519 0.2402,0.56407 0.4595,1.06797 0.7473,1.60929 0.2641,0.49679 0.548,0.98369 0.8528,1.45661 0.3366,0.52231 0.6931,1.03291 1.076,1.52228 0.3385,0.43255 0.6997,0.84795 1.0774,1.2467 0.4145,0.43756 0.8484,0.85774 1.302,1.25458 0.5046,0.4414 1.0347,0.85383 1.5756,1.24988 0.5931,0.43426 1.2063,0.84124 1.8282,1.23315 0.5126,0.32302 1.0342,0.63253 1.5671,0.92078 0.6546,0.3541 1.3223,0.68517 2.0003,0.99212 0.7178,0.32497 1.4488,0.62157 2.1866,0.89826 0.5991,0.22466 1.2044,0.43409 1.8172,0.61798 0.7765,0.23301 1.5622,0.43675 2.3533,0.61407 0.6018,0.13489 1.2089,0.24709 1.8183,0.34174 0.5571,0.0865 1.1167,0.16104 1.6786,0.20648 0.6052,0.0489 1.213,0.0708 1.8202,0.071 0.6603,2.5e-4 1.3211,-0.0259 1.9796,-0.0757 0.6684,-0.0505 1.3352,-0.1275 1.9983,-0.22607 0.6317,-0.0939 1.2607,-0.20892 1.8841,-0.34772 0.6435,-0.14328 1.2817,-0.31186 1.9135,-0.50018 0.5985,-0.1784 1.1912,-0.37777 1.7764,-0.59595 0.5877,-0.21909 1.1693,-0.45566 1.7402,-0.7154 0.5312,-0.2417 1.0541,-0.50283 1.5658,-0.7835 0.5997,-0.32891 1.1866,-0.68179 1.7605,-1.0539 0.491,-0.31838 0.9707,-0.6548 1.4378,-1.00732 0.4263,-0.32175 0.8425,-0.65765 1.244,-1.00989 0.4778,-0.41921 0.9373,-0.85963 1.3844,-1.31152 0.4803,-0.48551 0.9453,-0.98677 1.3931,-1.50244 0.4499,-0.51804 0.8866,-1.0484 1.2983,-1.59723 0.3292,-0.43883 0.6414,-0.89093 0.9357,-1.35389 0.4888,-0.76897 0.954,-1.55439 1.3767,-2.36163 0.4324,-0.82578 0.8262,-1.67269 1.1833,-2.53369 0.4318,-1.04102 0.8083,-2.1052 1.1576,-3.1767 0.3064,-0.93964 0.5756,-1.89161 0.8219,-2.84875 0.2238,-0.86972 0.4212,-1.74654 0.5952,-2.62756 0.2043,-1.03402 0.3762,-2.07464 0.5266,-3.11786 0.2025,-1.40482 0.2835,-2.81107 0.3679,-4.22791 0.072,-1.21574 0.1378,-2.43579 0.1378,-3.65369 v -3.91289 -6.71205 -17.81389 -28.22913 -15.452032" />
    </g>
  </g>
</svg>
